<svg id="Layer_1" data-name="Layer 1" xmlns="http://www.w3.org/2000/svg" xmlns:xlink="http://www.w3.org/1999/xlink" viewBox="0 0 489.34 79.49"><defs><style>.cls-1{font-size:36px;fill:#4d4d4f;font-family:Museo-500, Museo;}.cls-2{fill:url(#New_Gradient_Swatch_3);}.cls-3,.cls-4{fill:#fff;}.cls-4{stroke:#fff;stroke-width:3px;}.cls-5{fill:none;}.cls-6{fill:#c9252c;}.cls-7{fill:#ea8723;}.cls-8{fill:#3a878e;}.cls-9{fill:#71a341;}</style><linearGradient id="New_Gradient_Swatch_3" x1="1.9" y1="40.8" x2="72.75" y2="40.8" gradientUnits="userSpaceOnUse"><stop offset="0" stop-color="#f79557"/><stop offset="0.25" stop-color="#ee7e4e"/><stop offset="0.76" stop-color="#d54338"/><stop offset="1" stop-color="#c9252c"/></linearGradient></defs><title>itsi-logo</title><text x="-143.27" y="-266.01"></text><text class="cls-1" transform="translate(88.92 34.95)">Innovative Technology <tspan x="0" y="36">in Science Inquiry</tspan></text><text x="-143.27" y="-266.01"></text><circle class="cls-2" cx="37.32" cy="40.8" r="35.43"/><circle class="cls-3" cx="37.32" cy="40.8" r="31.89"/><path class="cls-4" d="M186.25,331.69l.52,1.67,25.31-7.91-7.93-25.38-1.33.42L197,302.31l-1.86.58a7.9,7.9,0,0,0,1.25-1.22,2.62,2.62,0,0,0,.75-2.3c-.34-1.09-1.55-1.72-3.23-1.75a9.22,9.22,0,0,0-2.87.46,8.31,8.31,0,0,0-1.38.57c-2.09,1.11-2.94,2.87-2.51,4.24.51,1.64,2.86,1.8,2.86,1.8l-11,3.44,2.9,9.29s.13-3.74,2.32-4.42,4,2.7,4.75,5l.1.3c.06.21.12.43.17.65a10.43,10.43,0,0,1,.22,2.76h0a10.44,10.44,0,0,0-.22-2.75c-.05-.23-.11-.45-.17-.65l-.1-.3c-.78-2.29-2.66-5.64-4.75-5s-2.32,4.42-2.32,4.42l-2.9-9.29-9.81,3.07h0l9.83-3.07-3.61-11.56s-.17,2.35-1.8,2.86c-1.27.4-2.88-.31-4-2.09a7.64,7.64,0,0,1-.55-1.09c-.09-.23-.18-.46-.26-.71a10.13,10.13,0,0,1-.35-1.48,8,8,0,0,1-.11-1.34c0-1.7.65-2.93,1.75-3.27a2.81,2.81,0,0,1,2.48.9,8.13,8.13,0,0,1,1,1.1l-.59-1.9-1.6-5.13-.63-2-25.61,8,8,25.72,2.08-.65,5.54-1.73,3.06-1a10.07,10.07,0,0,0-.78.82c-.78.91-1.82,2.39-1.45,3.57a2.58,2.58,0,0,0,2.12,1.46,7.3,7.3,0,0,0,1,.14,10.23,10.23,0,0,0,3.39-.35l.12,0c.25-.08.52-.17.8-.28a11.78,11.78,0,0,0,3.3-1.88,11.76,11.76,0,0,1-3.31,1.88l-.8.28-.12,0a10.21,10.21,0,0,1-3.39.35,7.88,7.88,0,0,1-1-.14,2.57,2.57,0,0,1-2.12-1.46c-.37-1.18.67-2.67,1.45-3.57.43-.5.78-.82.78-.82l-3.06,1-5.54,1.73-2.08.65,7.9,25.29,25.7-8-.52-1.68-1.89-6v0Zm-2.54-8.12h0v0h0Z" transform="translate(-143.27 -266.01)"/><path class="cls-4" d="M176.06,281.69c.54,2.06,1.89,3.23,3.24,3.23,1.74,0,2.61-2.23,2.61-2.23l0,12.28,11.7,0s-2.22-.87-2.23-2.61c0-1.46,1.35-2.91,3.71-3.35a8.42,8.42,0,0,1,1.51-.14,9.39,9.39,0,0,1,2.92.42h0c1.61.53,2.59,1.51,2.6,2.66a2.67,2.67,0,0,1-1.42,2,8.14,8.14,0,0,1-1.57.8h9.58l0-27.23-27,0v9.63a8.29,8.29,0,0,0-.68-1.38c-.48-.79-1.21-1.62-2.13-1.62-1.16,0-2.15,1-2.68,2.64a8.22,8.22,0,0,0-.3,1.33,10.64,10.64,0,0,0-.11,1.54c0,.27,0,.52,0,.77A7.57,7.57,0,0,0,176.06,281.69Z" transform="translate(-143.27 -266.01)"/><path class="cls-5" d="M183.71,323.56h0v0h0c0-.06,0-.12,0-.17s0,0,0-.07a.14.14,0,0,0,0,0v0h0s0,0,0-.06,0,0,0-.07,0,0,0,0,0,0,0,0a.15.15,0,0,0,0,0h0v-.13s0-.1,0-.15l0-.18s0-.1,0-.14v0l0-.13v0l0-.07-.43.15-.44.13-.54.14-.59.13c-.49.1-1,.17-1.46.22l-.07.08-.09.1-.1.13-.08.11-.09.13-.07.11-.08.13-.06.11-.07.13-.06.11-.06.14,0,.12,0,.14,0,.12,0,.14s0,.08,0,.11,0,.1,0,.14,0,.06,0,.09a.08.08,0,0,0,0,0s0,.1,0,.15,0,.07,0,.11,0,.1,0,.16,0,.07,0,.1,0,.12,0,.17,0,.06,0,.08,0,.17.05.25,0,.13.06.2l.06.15v0a3.34,3.34,0,0,0,.16.34l0,0c.06.11.13.22.21.33l0,0c.08.11.16.22.26.33l0,.05.31.33.05,0,.09.08.29.26.06.05.42.34.08.06.41.3.08.06.33.22,0,0,0,0,.34.22c.62.39,1.26.76,1.88,1.12s1.08.62,1.54.92l-1.89-6v0l-.66-2.1Z" transform="translate(-143.27 -266.01)"/><path class="cls-5" d="M198.19,318.75l-.39.13a7.09,7.09,0,0,1-3.68.33,4.17,4.17,0,0,1-.51-.16l-.21-.1a3.75,3.75,0,0,1-1.15-.86,4.36,4.36,0,0,1-.48-.64,4.91,4.91,0,0,1-.44-.92q-.27.39-.56.76l-.36.43-.41.46c-.24.26-.5.51-.76.76a10.43,10.43,0,0,1,.22,2.76l.06.1.06.08.1.12,0,0a2.59,2.59,0,0,0,.33.33,3.17,3.17,0,0,0,.67.42h0l.39.15h0l.42.12h.05l.46.09h.06l.51.06h.05l.58,0h1.13l.44,0c.74,0,1.47-.12,2.19-.2s1.4-.15,2-.18c-.14-.58-.27-1.25-.4-2S198.36,319.48,198.19,318.75Z" transform="translate(-143.27 -266.01)"/><path class="cls-5" d="M193.54,324.16h-.86l-.19,0-.38,0-.13,0-.14,0h0l-.13,0-.18,0-.12,0-.17,0-.12,0-.16,0-.12,0-.15-.05-.11,0-.14-.06-.1,0-.14-.07-.09,0-.14-.08,0,0,0,0-.13-.09h0l-.07,0-.19-.15-.17-.15h0v0l-.05-.06h0l0,0,0,0-.14-.16,0,0,0,0h0l-.12-.15-.07-.1-.1-.16h0l-.06-.1h0l-.09-.17h0l0-.06,0,0,0,0-.07-.16v0l0,0h0c0-.09-.07-.19-.1-.29h0l0-.08v0l0-.09,0-.09h0l0-.11v0c0-.06,0-.11,0-.17l0-.11v-.05c0-.05,0-.11,0-.17s0-.11,0-.17V320c-.24.18-.49.36-.74.53l-.47.3-.53.31c-.43.24-.87.45-1.32.65l-.05.12,0,.09-.08.2,0,.08c0,.07,0,.13-.06.2l0,.08,0,.2s0,.05,0,.08,0,.13,0,.2,0,.05,0,.08,0,.13,0,.2,0,.05,0,.08,0,.13,0,.19,0,.05,0,.08,0,.12,0,.18h0v.05l0,.17,0,.08,0,.17,0,.06h0a1.6,1.6,0,0,0,.05.16l0,.08.07.16,0,.07h0l.13.22a2.68,2.68,0,0,0,.22.3l0,0,.26.27,0,0,.3.25.06,0,.34.23.06,0,.4.22.06,0,.47.21h0l.52.2.09,0c.3.11.62.21,1,.31h0l.43.11c.71.18,1.43.33,2.13.48s1.38.29,2,.45c0-.59.13-1.27.22-2s.19-1.45.25-2.18h-.37Z" transform="translate(-143.27 -266.01)"/><path class="cls-5" d="M200.59,312.29c-.26.2-.55.4-.85.6h0l-.35.22-.09,0-.23.13-.13.07-.21.1-.11.05-.14.06-.14.06-.18.07-.13,0-.11,0-.06,0-.29.08-.12,0-.26,0-.12,0-.16,0,5.79,2c-.32-.51-.64-1.11-1-1.74S201,312.92,200.59,312.29Z" transform="translate(-143.27 -266.01)"/><path class="cls-5" d="M193.88,312.88l-.15-.14-.09-.09-.14-.15-.08-.1-.06-.07c0,.15-.09.29-.14.43l.82.28L194,313Z" transform="translate(-143.27 -266.01)"/><path class="cls-5" d="M196.77,314h-.44l-.23,0H196l-.1,0-.21,0-.11,0-.18-.05-.12,0-.18-.07-.11,0-.18-.09-.09-.05,0,0-.17-.11-.05,0-.26-.18-.07-.06-.09-.08h0l-.82-.28-.16.44-.2.52c-.08.19-.16.37-.25.56-.2.44-.43.87-.67,1.28a3.48,3.48,0,0,0,2,2.68,6.07,6.07,0,0,0,4-.34l.42-.15.41-.16c.69-.28,1.38-.58,2-.87s1.28-.58,1.84-.79l-5.8-2Z" transform="translate(-143.27 -266.01)"/><path class="cls-5" d="M191,298.87c.18.24.36.49.53.75l.3.47.31.53c.24.42.45.86.65,1.31h0l.28.11.18.07.29.08.17,0,.29.05.17,0h.45l.32,0H195a2.9,2.9,0,0,0,.41-.1l.34-.13.32-.17.29-.22a2.62,2.62,0,0,0,.75-2.3c-.34-1.09-1.55-1.72-3.23-1.75a3.79,3.79,0,0,1-1.18.83,4.49,4.49,0,0,1-.77.27,4.89,4.89,0,0,1-1,.14h0Z" transform="translate(-143.27 -266.01)"/><path class="cls-5" d="M197,302.32l-.09.07,0,0,0,0h0l-.24.17h0l-.21.12-.3.14-.35.14-.4.1-.07,0-.27,0-.13,0h-.06a4.25,4.25,0,0,1-.61,0l-.24,0h-.06l-.42-.08h0l-.2-.06h0c.05.14.1.29.15.43s.08.29.13.44.1.36.14.54.09.4.13.61c.1.48.17,1,.21,1.44l.08.07.09.08.14.11.1.07.15.1.09.06.16.09.09,0,.17.08.08,0,.17.07.08,0,.18.06.07,0,.19,0,.07,0,.2,0h.58l.22,0h0l.25-.05.16,0a2.49,2.49,0,0,0,.35-.14h0l.1-.05.25-.13.15-.1.22-.16.16-.13.21-.18.16-.16.22-.22.17-.18.22-.25.17-.21.22-.29.17-.23.1-.14.23-.33,0,0,.24-.37c.39-.62.76-1.26,1.12-1.88s.7-1.22,1-1.72h0L197,302.31Z" transform="translate(-143.27 -266.01)"/><path class="cls-5" d="M194.12,311.86l0,0,.09.11h0l0,0,.07.08.09.09h0l.06.06,0,0,.11.09.1.09.11.08.11.07.07,0,0,0,.11.06h0l.13.06.11.05.13.05.09,0h0l.14,0,.1,0,.17,0,.08,0,.25,0a2.73,2.73,0,0,0,.41,0h0l.14,0,.27,0,.19,0,.26-.07.21-.08.26-.1.23-.11.27-.13.24-.14.28-.17.25-.16.3-.2.26-.19.15-.11.32-.24,0,0,.34-.28c.57-.47,1.12-1,1.66-1.45s1-.94,1.5-1.31c-.46-.38-1-.86-1.47-1.35s-1.06-1-1.62-1.49l0,.05-.38.51-.09.11-.22.27-.09.11h0l-.15.17-.25.26h0l-.2.19-.22.21-.21.17-.12.09-.12.09-.18.13-.28.17-.12.07-.34.16h0l-.06,0-.44.14-.22,0-.09,0H197l-.28,0h0a3.83,3.83,0,0,1-1-.07,4,4,0,0,1-.76-.23,4.87,4.87,0,0,1-.88-.47c0,.3,0,.61,0,.91s0,.37,0,.56,0,.41-.06.62c-.06.48-.14,1-.25,1.43h0l.05.1.08.13.08.12.09.12.06.07,0,0Z" transform="translate(-143.27 -266.01)"/><path class="cls-5" d="M188,327.94l-.2-.07-.09,0-.19-.07-.1,0-.19-.07-.1,0-.2-.08-.09,0-.23-.1h0l-.05,0h0l-.29-.14h0l0,0,0,0-.2-.11-.12-.07-.15-.09h0l-.1-.06h0l-.14-.1-.12-.09-.13-.11h0l-.07-.06,0,0-.13-.11h0l-.09-.09h0l-.13-.13h0l-.08-.09-.06-.07-.07-.09h0l-.07-.08h0l-.1-.15,1.89,6,.18.11c.22-.55.52-1.16.82-1.81s.63-1.33.92-2l-.05,0Z" transform="translate(-143.27 -266.01)"/><path class="cls-5" d="M181.89,317.42s.13-3.74,2.32-4.42,4,2.7,4.75,5l.08-.08.34-.36.07-.08.11-.12a14.09,14.09,0,0,0,1.46-2l.08-.13c.1-.17.2-.34.3-.52l.22-.42c.09-.18.18-.36.26-.55l.06-.14c.16-.37.31-.75.45-1.14h0c.13-.38.25-.77.34-1.17h0c.06-.25.11-.49.16-.74s.06-.32.08-.48,0-.32.06-.48v-.1l0-.17a14.28,14.28,0,0,0,0-2.44h0c0-.25,0-.5-.08-.75s0-.33-.07-.49-.05-.31-.08-.46l0-.09,0-.19c-.09-.39-.19-.79-.31-1.18s-.26-.77-.41-1.14h0c-.1-.23-.2-.47-.3-.69l-.22-.44-.22-.42-.05-.09-.09-.16a14.11,14.11,0,0,0-1.41-2h0l-.12-.13c-2.09,1.11-2.94,2.87-2.51,4.24.51,1.64,2.86,1.8,2.86,1.8l-11,3.44Z" transform="translate(-143.27 -266.01)"/><path class="cls-5" d="M188.94,319.35v.09c0,.07,0,.14,0,.21v.09c0,.07,0,.14,0,.2s0,.06,0,.09,0,.13,0,.19v.09l0,.18,0,.1a1.64,1.64,0,0,0,0,.17l0,.07v0a1.54,1.54,0,0,0,.05.16l0,.1.06.15,0,.08v0l.07.13.05.1.07.11h0a10.49,10.49,0,0,0-.22-2.76l-.28.26Z" transform="translate(-143.27 -266.01)"/><path class="cls-5" d="M158.95,317.11l0-.1.06-.18,0-.11.06-.18,0-.1.07-.2,0-.09.09-.22,0-.07.12-.27v0c.09-.2.19-.39.3-.58l0,0,.13-.23,0-.07.13-.2.06-.08.14-.18.06-.08.14-.17.07-.07.14-.13-5.54,1.73c.52.21,1.08.48,1.68.76s1.32.63,2,.92Z" transform="translate(-143.27 -266.01)"/><path class="cls-5" d="M163.7,318.7l0-.06a2.57,2.57,0,0,1-2.12-1.46c-.37-1.18.67-2.67,1.45-3.57h0l-.2,0h-.07l-.21.05h0l-.19.06-.1,0-.16.07-.16.09-.1.05,0,0-.22.16-.07.05a3.17,3.17,0,0,0-.24.23l-.06.07-.23.28-.05.07c-.08.1-.15.21-.22.33l0,.08c-.07.12-.14.25-.21.39l0,.08c-.07.14-.14.29-.21.45l0,.07c-.07.16-.14.34-.2.52l0,0c-.07.19-.13.39-.2.6v0l-.11.38v0c0,.14-.07.28-.11.43-.19.72-.34,1.45-.49,2.15s-.29,1.37-.45,1.94c.59,0,1.27.13,2,.22s1.45.19,2.19.25a.51.51,0,0,0,0-.08v0c0-.08,0-.17,0-.26v-.07c0-.08,0-.16,0-.24s0-.05,0-.08,0-.16,0-.23v-.09l0-.23s0-.06,0-.08,0-.18,0-.28a.3.3,0,0,1,0,0c0-.11,0-.22,0-.32h0v0c0-.1,0-.19.05-.29l0-.1.05-.21,0-.12.06-.19,0-.12.06-.18,0-.06,0-.05.07-.17.05-.12.09-.17.06-.11,0-.08.06-.1Z" transform="translate(-143.27 -266.01)"/><path class="cls-5" d="M168.11,327l-.05-.17,0-.06,0-.06-.05-.17,0-.13,0-.17,0-.13,0-.17,0-.14,0-.19,0-.12-.05-.31s0-.07,0-.1,0-.14,0-.21v-.13c0-.06,0-.13,0-.19s0-.09,0-.14,0-.12,0-.18a.56.56,0,0,1,0-.06s0-.05,0-.08,0-.12,0-.18,0-.09,0-.14,0-.12,0-.18l0-.13,0-.18,0-.13,0-.09,0-.11,0-.1a3.1,3.1,0,0,1,.1-.3l.1-.21c0-.07.06-.13.09-.19a3.77,3.77,0,0,1,.78-1,4.36,4.36,0,0,1,.64-.48,4.94,4.94,0,0,1,.91-.44c-.26-.18-.51-.36-.75-.55l-.43-.36-.46-.41-.56-.55a10.21,10.21,0,0,1-3.39.35,3,3,0,0,0-.23.23,3.52,3.52,0,0,0-.22.3h0l-.09.16-.09.17,0,0h0v0l0,.1,0,.12v0l0,.09,0,.06c0,.13-.08.26-.12.4l0,.07c0,.14-.06.29-.09.45v.07c0,.16,0,.33-.06.5v.06c0,.18,0,.37,0,.57v0c0,.2,0,.42,0,.64h0c0,.13,0,.26,0,.4a.28.28,0,0,1,0,0c0,.15,0,.3,0,.44,0,.74.12,1.47.2,2.19s.15,1.39.18,2c.58-.15,1.26-.27,2-.4s1.43-.27,2.14-.43l0,0Z" transform="translate(-143.27 -266.01)"/><path class="cls-5" d="M174.53,329.45l-.1-.14-.07-.11-.1-.14-.07-.11-.1-.15-.07-.11-.1-.16-.06-.1-.11-.19,0-.08-.06-.11h0l-.09-.17,0-.06-.11-.23,0-.09,0-.08-.05-.12,0-.12-.06-.18,0-.06,0-.1,0-.14,0-.13,0-.14,0-.11v-.06c0-.06,0-.12,0-.19s0-.08,0-.12,0,0,0-.08h0s0-.06,0-.08v0s0-.07,0-.1,0-.21,0-.31,0-.15,0-.23V325l0-.1c0-.07,0-.14,0-.2l0-.12c0-.06,0-.12.05-.18l0-.12.07-.18,0-.11.09-.18.05-.1,0,0,.11-.18,0-.05.18-.26.06-.07.08-.09.07-.08.08-.09.14-.15.1-.09.15-.14.1-.08.07-.06c-.3-.09-.58-.19-.87-.3l-.52-.21-.56-.24q-.66-.3-1.28-.67h-.12l-.36.1a3.33,3.33,0,0,0-2.2,1.87l-.07.2,0,.16v0a3.53,3.53,0,0,0-.07.37h0v0c0,.09,0,.19,0,.29s0,.07,0,.1v.06c0,.1,0,.21,0,.31s0,.07,0,.11h0v.07c0,.15,0,.29.06.45v.07c0,.16.06.32.1.49l0,.06h0c0,.18.09.36.14.55v0l.08.28.11.33h0l.13.38v0l.16.41c.27.69.57,1.36.87,2s.57,1.28.78,1.84c.51-.32,1.11-.65,1.74-1s1.28-.7,1.91-1.08l0,0Z" transform="translate(-143.27 -266.01)"/><path class="cls-5" d="M181.31,329.71h0l-.12-.09-.07,0-.07,0h0l-.15-.12h0l-.1-.08h0l-.13-.11-.12-.1h0l-.11-.09-.17-.15h0l0,0,0,0-.23-.22,0,0h0l-.19-.21,0,0,0,0-.15-.17-.05-.07h0l-.12-.17-.07-.1-.11-.16-.06-.1-.1-.17-.06-.11-.09-.18-.05-.11,0-.08,0-.11,0-.09c0-.1-.06-.2-.09-.3s0-.15,0-.22l0-.08a.94.94,0,0,1,0-.1c0-.07,0-.14,0-.2v-.12c0-.06,0-.13,0-.19s0-.08,0-.12,0-.12,0-.19,0-.08,0-.12,0-.13,0-.2l0-.11v0c0-.07,0-.13,0-.2s0,0,0-.06.06-.2.09-.3l0-.09,0-.11,0-.09.05-.11.09-.18.06-.12.1-.17.07-.11,0-.08c-.3,0-.61,0-.91,0l-.56,0-.61-.06a14.44,14.44,0,0,1-1.43-.25l-.1.06-.12.08-.13.09-.12.08-.12.09-.11.09-.11.1-.1.09-.1.1-.09.1-.09.11-.08.1-.08.11-.07.1-.07.12,0,.08v0l-.06.12-.05.11-.05.13,0,.11,0,.14,0,.1,0,.16,0,.09c0,.08,0,.17,0,.25a2.63,2.63,0,0,0,0,.41s0,.1,0,.15,0,.18,0,.28l0,.19c0,.08,0,.17.07.25h0l.07.2v0l.1.25.11.24.13.25.14.26.16.26h0l.05.08.11.18.19.28.1.14.09.13h0l.11.14.24.32h0l0,0,.28.34c.47.57,1,1.12,1.45,1.66s.94,1,1.31,1.5c.38-.46.85-1,1.34-1.47s1-1.06,1.49-1.62l-.21-.15Z" transform="translate(-143.27 -266.01)"/><path class="cls-5" d="M157.36,303.61h0l0,0,.11-.08.26-.19.15-.1.23-.16.15-.1.22-.14.15-.08.21-.12.15-.08.21-.1.13-.06.22-.09.12,0,.28-.1.05,0a4.52,4.52,0,0,1,1-.2,3.31,3.31,0,0,1,.53,0l.23,0h.06l.18,0,.12,0,.16,0,.14,0,.14,0,.15.06.13.06.16.08.11.06,0,0,.17.11.05,0,.26.18.07.06.09.08.09.07.08.08.15.15.08.09.14.16.08.1.06.08c.09-.3.19-.59.3-.88l.2-.51.25-.56q.31-.66.67-1.28s0-.08,0-.12h0l0-.12h0l0-.16h0l0-.11h0l-.05-.16h0l0-.1h0l-.06-.15h0l0-.1h0l-.07-.14h0l-.05-.09h0l-.08-.13h0l-.06-.09h0l-.09-.12h0l-.06-.09h0l-.1-.12h0l-.06-.07-.1-.1h0l-.08-.08h0l-.1-.08h0l-.08-.07h0l-.09-.07,0,0-.08-.06h0l-.06,0-.08,0-.07,0-.23-.11a5.46,5.46,0,0,0-3.58.19h0l-.22.07L160,298h0l-.38.14h0l-.41.16c-.69.27-1.36.57-2,.86s-1.28.58-1.84.78c.32.51.64,1.11,1,1.74S157,303,157.36,303.61Z" transform="translate(-143.27 -266.01)"/><path class="cls-5" d="M159.77,297.15l.4-.13a6.92,6.92,0,0,1,3.67-.33l.41.12.1,0,.21.09.08,0h0l.05,0h0l.18.1h0l.09.06.16.11.1.07.15.12h0l.08.07.14.14h0l.08.08h0l0,0,.12.14h0l0,0h0l.18.25h0l.06.09v0l.05.08.05.08,0,0,0,.08h0l.08.16,0,.05,0,.08h0l.07.16.06.15,0,.08c.18-.25.36-.5.55-.74l.36-.43.41-.46c.33-.35.67-.69,1-1l0-.12s0-.09,0-.14,0-.11,0-.16v0c-.09-.23-.18-.46-.26-.71a10.13,10.13,0,0,1-.35-1.48l-.06-.08-.07-.08-.11-.12-.06-.07-.19-.17a2.79,2.79,0,0,0-.3-.22l0,0-.14-.08-.19-.1h0l0,0-.33-.13-.06,0-.4-.11-.07,0-.45-.08h-.07l-.5-.06H165l-.36,0h-1.13l-.44,0c-.74,0-1.47.13-2.18.2s-1.4.15-2,.18c.14.58.27,1.25.4,2S159.6,296.43,159.77,297.15Z" transform="translate(-143.27 -266.01)"/><path class="cls-5" d="M164.12,291.74h1l.2,0h.12l.24,0h.08l.32,0h.05l.26,0h.11l.21,0,.08,0h0l.19.05.06,0,.06,0,.18.06h0l.12,0,.17.08h0l.08,0,0,0,.17.09.11.06.08,0,.1.07.09.06.07.05c0-1.7.65-2.93,1.75-3.27a2.81,2.81,0,0,1,2.48.9l-.12-.12,0,0-.3-.25-.05,0-.35-.23-.06,0-.4-.22-.07,0-.45-.21-.07,0-.53-.2,0,0-.59-.19h0l-.38-.11h0l-.43-.11c-.71-.18-1.44-.34-2.14-.49s-1.37-.29-1.95-.45c0,.59-.13,1.27-.22,2s-.19,1.45-.25,2.19h.07Z" transform="translate(-143.27 -266.01)"/><path class="cls-5" d="M171.17,288.43l0,0h0l.26.12h0l.06,0,.21.11.09,0,.18.1.06,0h0l.16.1.09.06.15.1.09.06.13.1.08.07.12.11,0,0-1.6-5.13c-.2.47-.44,1-.69,1.5s-.62,1.31-.91,2a12.79,12.79,0,0,1,1.38.51Z" transform="translate(-143.27 -266.01)"/><path class="cls-5" d="M157.08,310.51l0,0q.41-.58.81-1h0a6,6,0,0,1,2.18-1.69,3.84,3.84,0,0,1,.51-.17l.22,0h.06l.19,0H162l.17,0,.13,0h0l.18,0,.09,0,.3.09.1,0,.1,0,.1,0,.12.05.18.09.12.06.17.1.12.07.07,0c0-.31,0-.62,0-.92s0-.37,0-.55,0-.41.06-.62a14.39,14.39,0,0,1,.24-1.42l-.06-.1,0,0-.05-.09-.08-.13h0l-.08-.12-.09-.12-.09-.11h0l0-.06,0-.06-.09-.1-.1-.1h0l-.08-.08-.11-.09-.09-.08h0l-.11-.08-.1-.07-.13-.08-.09-.05-.14-.08h0l-.07,0h0l-.17-.07-.07,0-.21-.06h0l-.09,0h-.07l-.35,0a3,3,0,0,0-.41,0h-.07l-.36.05-.13,0-.31.08-.17.07-.3.11-.2.1-.29.15-.22.12-.3.18-.24.16-.31.21-.26.18-.15.11-.32.24,0,0-.34.28c-.57.47-1.11,1-1.65,1.44s-1,.95-1.51,1.32c.45.38,1,.86,1.47,1.35S156.52,310,157.08,310.51Z" transform="translate(-143.27 -266.01)"/><path class="cls-5" d="M160.79,313.74l0,0,.07-.06.07-.07.11-.09.06,0,.25-.18h0l.08,0,.13-.07a3.73,3.73,0,0,1,.66-.28l.4-.1h.06l.27,0,.13,0h.06a5.14,5.14,0,0,1,.61,0l.24,0h.06l.42.08.06,0,.19,0c-.05-.14-.1-.28-.15-.43s-.08-.29-.12-.44-.1-.36-.14-.54-.09-.4-.13-.6a14.17,14.17,0,0,1-.21-1.45l-.08-.08-.1-.08-.13-.11-.1-.08-.13-.09-.1-.07-.14-.08-.11-.06-.14-.07-.07,0,0,0-.06,0-.07,0h0l-.09,0h0l-.13,0-.13,0-.12,0h0l-.11,0h0l-.1,0h0l-.11,0h-.77l-.17,0h-.09a3.91,3.91,0,0,0-1.68,1h0l-.25.25h0l-.12.13h0l-.22.25,0,0-.14.17,0,0-.19.25,0,0-.17.23v0l-.18.24h0l-.22.33,0,0-.24.37c-.39.62-.76,1.26-1.12,1.88s-.7,1.22-1,1.72l.14.06Z" transform="translate(-143.27 -266.01)"/><path class="cls-5" d="M166,317.17a5.15,5.15,0,0,1,1-.13c-.19-.24-.36-.49-.53-.75l-.3-.47c-.11-.17-.21-.35-.31-.53-.24-.42-.45-.86-.65-1.31l-.06,0-.05,0-.09,0-.07,0-.12,0-.09,0-.17,0h0l-.07,0h0l-.19,0-.09,0-.19,0h-.09l-.19,0h-.61c-.78.91-1.82,2.39-1.45,3.57a2.58,2.58,0,0,0,2.12,1.46l.14-.19.15-.17a3.85,3.85,0,0,1,1.2-.85,4.81,4.81,0,0,1,.49-.19Z" transform="translate(-143.27 -266.01)"/><path class="cls-5" d="M168.18,318.42c-.15-.16-.31-.32-.45-.48H167l-.2,0h-.13l-.21,0-.1,0h0l-.31.08a3,3,0,0,0-1.2.69A10.23,10.23,0,0,0,168.18,318.42Z" transform="translate(-143.27 -266.01)"/><path class="cls-5" d="M169.59,297.36l-.33.3-.34.34-.34.36-.07.08-.11.12a14.13,14.13,0,0,0-1.46,2h0c-.13.22-.26.44-.38.66l-.21.41-.22.46,0,.11-.06.13a14.11,14.11,0,0,0-.79,2.32h0c-.06.25-.11.49-.16.74s-.06.31-.08.47,0,.32-.06.49v.1l0,.17a14.1,14.1,0,0,0,0,2.44h0c0,.25,0,.5.08.75s0,.32.07.49.05.31.08.47l0,.1,0,.18c.09.39.19.79.31,1.18s.26.77.42,1.14h0c.09.23.2.46.3.69h0l.22.44.22.42.05.09.09.16a14.06,14.06,0,0,0,1.41,2h0c.17.19.34.38.51.57h0l.34.34.08.08q1.68-.65,0,0l.28.26.08.07.12.11a14.17,14.17,0,0,0,2,1.46h0l.66.38h0l.4.21.46.22.11,0,.13.06a14.35,14.35,0,0,0,2.32.79h0l.74.16.48.08.48.06h.1l.18,0a13.74,13.74,0,0,0,2.43,0h0l.75-.08.49-.07.46-.08.1,0,.19,0c.39-.09.79-.19,1.18-.31s.77-.26,1.14-.42h0l.69-.31.45-.22.41-.22.09-.06.16-.09a14,14,0,0,0,2-1.41h0c.2-.16.38-.34.57-.51L189,318c-.78-2.29-2.66-5.64-4.75-5s-2.32,4.42-2.32,4.42l-2.9-9.29h0l-3.61-11.56s-.17,2.35-1.8,2.86C172.31,299.85,170.7,299.14,169.59,297.36Z" transform="translate(-143.27 -266.01)"/><path class="cls-6" d="M202.83,300.49,197,302.31l-1.86.58a7.9,7.9,0,0,0,1.25-1.22,2.62,2.62,0,0,0,.75-2.3c-.34-1.09-1.55-1.72-3.23-1.75a9.22,9.22,0,0,0-2.87.46,8.31,8.31,0,0,0-1.38.57c-2.09,1.11-2.94,2.87-2.51,4.24.51,1.64,2.86,1.8,2.86,1.8l-11,3.44,2.9,9.29s.13-3.74,2.32-4.42,4,2.7,4.75,5l.1.3c.06.21.12.43.17.65a10.43,10.43,0,0,1,.22,2.76,7.48,7.48,0,0,1-.16,1.18,2.53,2.53,0,0,1-1.45,2.07c-1,.33-2.33-.45-3.24-1.18a10.63,10.63,0,0,1-.87-.77l-.28-.28.25.81v.05c0,.06,0,.11,0,.17s0,.11,0,.16v0l0,.13c0,.06,0,.12,0,.18l0,.13,0,.17h0l0,.07v0l.06.18h0l0,.1h0l.09.19h0l0,.09,0,.07.11.2.08.11,1.89,6,.52,1.67,25.31-7.91-7.93-25.38Z" transform="translate(-143.27 -266.01)"/><path class="cls-7" d="M189,318c-.78-2.29-2.66-5.64-4.75-5s-2.32,4.42-2.32,4.42l-2.9-9.29-9.83,3.07s3.74.13,4.42,2.32c.61,1.94-2.24,3.7-4.48,4.56l-.8.28-.12,0a10.21,10.21,0,0,1-3.39.35,7.88,7.88,0,0,1-1-.14,2.57,2.57,0,0,1-2.12-1.46c-.37-1.18.67-2.67,1.45-3.57.43-.5.78-.82.78-.82l-3.06,1-5.54,1.73-2.08.65,7.9,25.29,25.7-8-.52-1.68-1.89-6-.65-2.1c0-.06,0-.12,0-.19s0,0,0-.07a.14.14,0,0,0,0,0s0,0,0-.06,0,0,0-.07v-.09a.15.15,0,0,0,0,0c.21.2.51.48.87.77.91.72,2.2,1.5,3.25,1.18a2.54,2.54,0,0,0,1.45-2.07,7.75,7.75,0,0,0,.16-1.18,10.49,10.49,0,0,0-.22-2.76c-.05-.23-.11-.45-.17-.65Z" transform="translate(-143.27 -266.01)"/><path class="cls-8" d="M175.39,296.59s-.17,2.35-1.8,2.86c-1.27.4-2.88-.31-4-2.09a7.64,7.64,0,0,1-.55-1.09c-.09-.23-.18-.46-.26-.71a10.13,10.13,0,0,1-.35-1.48,8,8,0,0,1-.11-1.34c0-1.7.65-2.93,1.75-3.27a2.81,2.81,0,0,1,2.48.9,8.13,8.13,0,0,1,1,1.1l-.59-1.9-1.6-5.13-.63-2-25.61,8,8,25.72,2.08-.65,5.54-1.73,3.06-1a10.07,10.07,0,0,0-.78.82c-.78.91-1.82,2.39-1.45,3.57a2.58,2.58,0,0,0,2.12,1.46,7.3,7.3,0,0,0,1,.14,10.23,10.23,0,0,0,3.39-.35l.12,0c.25-.08.52-.17.8-.28,2.24-.87,5.09-2.62,4.48-4.57-.68-2.18-4.42-2.32-4.42-2.32l9.83-3.07Z" transform="translate(-143.27 -266.01)"/><path class="cls-3" d="M204.58,308.39l.38-.27-.38-.28a22.56,22.56,0,0,1-1.85-1.61c-.57-.53-1.17-1.07-1.79-1.59h0c.43-.69.83-1.39,1.21-2.07a22.93,22.93,0,0,1,1.26-2.1l.28-.38-.45-.14a22.62,22.62,0,0,1-2.26-1c-.71-.33-1.44-.66-2.19-1h0c.2-.79.36-1.57.51-2.34a22.91,22.91,0,0,1,.56-2.4l.15-.45h-.51a23.17,23.17,0,0,1-2.43-.21c-.77-.09-1.56-.18-2.37-.24h0c-.05-.81-.15-1.6-.24-2.37a22.38,22.38,0,0,1-.21-2.46v-.47l-.45.15a22.35,22.35,0,0,1-2.4.56c-.76.15-1.55.31-2.33.51h0c-.3-.75-.64-1.48-1-2.19a22.79,22.79,0,0,1-1-2.26l-.14-.45-.38.28a22.71,22.71,0,0,1-2.11,1.27c-.68.38-1.38.78-2.07,1.21h0c-.52-.63-1.07-1.23-1.6-1.8a22.85,22.85,0,0,1-1.6-1.84l-.28-.38-.28.38a22.75,22.75,0,0,1-1.61,1.86c-.53.57-1.07,1.16-1.59,1.79h0c-.69-.43-1.39-.83-2.07-1.21a22.59,22.59,0,0,1-2.11-1.27l-.38-.28-.14.45a22.26,22.26,0,0,1-1,2.26c-.33.71-.66,1.44-1,2.19h0c-.78-.2-1.57-.36-2.34-.51a22.14,22.14,0,0,1-2.4-.56l-.45-.15v.47a22.34,22.34,0,0,1-.21,2.45c-.09.78-.18,1.58-.24,2.39h0c-.81.05-1.61.15-2.38.24a22.81,22.81,0,0,1-2.45.21h-.47l.15.45a22.57,22.57,0,0,1,.55,2.39c.15.77.31,1.56.51,2.34h0c-.75.3-1.48.63-2.19,1a23,23,0,0,1-2.27,1l-.45.14.28.38a22.32,22.32,0,0,1,1.27,2.1c.38.68.78,1.38,1.21,2.07h0c-.62.52-1.21,1.06-1.78,1.58a22.88,22.88,0,0,1-1.86,1.62l-.38.27.38.28a23.29,23.29,0,0,1,1.85,1.61c.57.53,1.17,1.07,1.79,1.59h0c-.43.69-.83,1.39-1.21,2.08a22.74,22.74,0,0,1-1.26,2.09l-.28.38.45.14a22.36,22.36,0,0,1,2.25.95c.71.33,1.45.67,2.21,1h0c-.2.79-.36,1.58-.51,2.34A22.9,22.9,0,0,1,158,323l-.12.45h.47a23.05,23.05,0,0,1,2.43.21c.77.09,1.56.18,2.37.24h0c.05.81.15,1.61.24,2.39a22.14,22.14,0,0,1,.21,2.45v.47l.45-.15a22.63,22.63,0,0,1,2.39-.56c.77-.15,1.55-.31,2.34-.51h0c.3.75.64,1.49,1,2.2a22.39,22.39,0,0,1,1,2.26l.08.24h.36l.09-.07a22.23,22.23,0,0,1,2.1-1.27c.68-.38,1.38-.78,2.07-1.21h0c.52.62,1.06,1.21,1.59,1.78a22.28,22.28,0,0,1,1.61,1.86l.28.38.28-.38a22.07,22.07,0,0,1,1.6-1.85c.53-.58,1.08-1.17,1.6-1.8h0c.68.43,1.38.82,2.06,1.2a22.69,22.69,0,0,1,2.12,1.27l.38.28.14-.45a22.31,22.31,0,0,1,1-2.27c.33-.71.66-1.44,1-2.19h0c.79.2,1.57.36,2.34.51a22.75,22.75,0,0,1,2.4.56l.45.15v-.47a22.74,22.74,0,0,1,.21-2.45c.09-.76.19-1.57.24-2.39.81-.05,1.63-.15,2.38-.24a22,22,0,0,1,2.45-.21l.47,0-.14-.47a22.52,22.52,0,0,1-.56-2.4c-.15-.76-.31-1.55-.51-2.34h0c.76-.3,1.49-.64,2.2-1a22.7,22.7,0,0,1,2.26-1l.45-.14-.28-.38a23.09,23.09,0,0,1-1.27-2.1c-.38-.68-.78-1.38-1.21-2.07h0c.62-.52,1.21-1.06,1.78-1.58A22.39,22.39,0,0,1,204.58,308.39Zm-3.89-8.8c.69.32,1.34.62,1.91.84-.34.51-.69,1.14-1.05,1.79s-.75,1.32-1.16,2l-.2.32-.17.26-.13.2-.08.11-.11.16-.23.3-.18.23-.23.27-.17.19-.23.23-.05.05-.11.11-.19.16-.05,0-.13.11,0,0-.23.15,0,0-.07,0-.07,0-.29.14h0l-.09,0a3.18,3.18,0,0,1-.4.14l-.31.06-.14,0h-.15a3.16,3.16,0,0,1-.44,0h0a4,4,0,0,1-2-.87l-.13-.11-.1-.09a15,15,0,0,0-.24-1.49c-.06-.3-.14-.6-.22-.9s-.24-.81-.39-1.21a4.72,4.72,0,0,0,1.38.22h0a3.92,3.92,0,0,0,1.17-.18h0l.32-.12h0l.08,0h0a3.53,3.53,0,0,0,.41-.22l.22-.16,0,0,.08-.06.16-.13.09-.08.13-.13.08-.09.12-.14.08-.1.11-.15.07-.11.1-.15,0-.06,0-.05.1-.16,0,0,0-.08.09-.17h0l.05-.1.09-.19,0,0,0-.06.09-.21,0-.07.11-.29,0,0,.09-.24,0,0,0-.06,0-.05,0-.13,0-.12,0-.06,0-.09,0-.09v0l0-.08C199.32,299,200,299.28,200.69,299.59ZM192.93,310a0,0,0,0,0,0,0c-.06.42-.13.84-.23,1.25h0a13.93,13.93,0,0,1-.77,2.37c-.08.2-.17.4-.27.59v0q-.28.57-.6,1.11h0a14.17,14.17,0,0,1-1.48,2l-.42.46-.46.46-.46.42a14.15,14.15,0,0,1-2,1.49l-.55.32h0c-.37.2-.75.38-1.15.55h0a14.11,14.11,0,0,1-2.37.77l-.64.13h0c-.41.07-.83.13-1.26.17h0c-.41,0-.83.06-1.25.06s-.83,0-1.25-.06l-.65-.07h0q-.63-.09-1.25-.23h0a14,14,0,0,1-2.37-.77l-.59-.27h0c-.38-.18-.75-.39-1.11-.6h0a14.14,14.14,0,0,1-2-1.48l-.45-.41h0c-.3-.29-.6-.6-.88-.92h0a14.09,14.09,0,0,1-1.48-2c-.11-.18-.22-.37-.32-.55h0q-.3-.56-.55-1.14h0a13.94,13.94,0,0,1-.77-2.37c0-.21-.09-.42-.13-.63v0q-.11-.62-.17-1.25h0c0-.41-.06-.83-.06-1.25s0-.84.06-1.26q0-.32.07-.63v0q.09-.63.23-1.25h0a14.11,14.11,0,0,1,.77-2.38c.08-.2.17-.39.26-.58h0c.18-.38.39-.75.6-1.11h0a14.22,14.22,0,0,1,1.48-2h0l.41-.45h0c.29-.31.6-.6.92-.88h0a14.06,14.06,0,0,1,2-1.48l.55-.32h0c.37-.2.75-.39,1.15-.55h0a14,14,0,0,1,2.37-.77l.64-.13h0c.41-.07.83-.13,1.25-.17h0c.41,0,.82-.06,1.24-.06s.84,0,1.25.06l.65.07h0q.63.09,1.25.23h0a13.93,13.93,0,0,1,2.37.77l.59.27h0q.57.28,1.11.6h0a14.08,14.08,0,0,1,2,1.48l.45.41h0c.31.29.6.6.88.91h0a14,14,0,0,1,1.48,2c.11.18.22.37.32.56h0c.2.37.38.75.55,1.14h0a13.93,13.93,0,0,1,.77,2.37c0,.21.09.42.13.63a0,0,0,0,0,0,0c.07.41.13.83.17,1.25h0c0,.41.06.83.06,1.25s0,.84-.06,1.26Q193,309.69,192.93,310ZM197,293.29c.75.09,1.47.17,2.09.2-.16.59-.3,1.3-.45,2s-.29,1.49-.48,2.23c0,.12-.06.24-.09.36l-.09.3-.06.23-.1.31-.12.35-.1.28-.13.32-.11.25-.14.29-.11.21c-.05.09-.11.17-.16.26l-.11.17-.18.23-.11.14-.21.22-.1.09a2.87,2.87,0,0,1-.33.25h0a3,3,0,0,1-1.64.45h-.3l-.22,0-.12,0-.08,0-.09,0-.16,0-.11,0-.06,0-.17-.05-.14-.05h0l-.17-.07-.11,0a14.91,14.91,0,0,0-.68-1.33c-.16-.27-.32-.54-.49-.8s-.49-.7-.76-1a4.76,4.76,0,0,0,1.39-.22h0a4.34,4.34,0,0,0,.45-.18l.08,0a3.62,3.62,0,0,0,.42-.24l.06,0,.13-.09.18-.15.11-.09a3.7,3.7,0,0,0,.34-.36c.06-.07.1-.14.16-.22l.12-.17L194,297c.05-.1.11-.19.16-.3s.05-.13.08-.19.08-.2.12-.3l0,0,0-.19c0-.11.06-.21.08-.32s0-.18.05-.26l0-.17,0-.17c0-.1,0-.2,0-.3s0-.24,0-.37,0-.11,0-.16,0-.11,0-.16,0-.26,0-.4,0-.09,0-.15,0-.15,0-.22,0-.15,0-.23C195.49,293.11,196.25,293.2,197,293.29Zm-5.46-4.85c.74-.15,1.45-.29,2-.45,0,.62.12,1.33.21,2.09s.18,1.5.23,2.26c0,.12,0,.25,0,.37s0,.21,0,.31,0,.16,0,.24,0,.22,0,.33,0,.25,0,.37,0,.2,0,.3,0,.23,0,.34l0,.27c0,.11,0,.21,0,.31s0,.16,0,.24,0,.19-.07.28,0,.14-.06.21-.06.18-.1.27,0,.12-.07.17-.09.18-.13.26l-.07.13a3,3,0,0,1-.24.34,2.8,2.8,0,0,1-.32.33l-.08.07a3,3,0,0,1-.37.26h0a3.31,3.31,0,0,1-.47.23h0a3.52,3.52,0,0,1-.52.16l-.1,0h-.07a4.28,4.28,0,0,1-.75.07l-.37,0h-.17q-.5-.55-1.05-1.05c-.23-.21-.47-.41-.71-.6s-.67-.51-1-.75h0l.2-.07h0l.07,0h0l.21-.1.08,0,.28-.15,0,0,.23-.15h0l.05,0h0l.17-.13h0l.07-.06h0l.14-.13,0,0,0,0h0l.13-.13.08-.09.12-.14h0l0-.06,0,0,.11-.16,0-.07,0,0,.1-.18,0-.09c0-.09.09-.18.12-.28s.05-.17.08-.25,0-.14.06-.21h0s0-.09,0-.14,0-.22.06-.34,0-.14,0-.2,0-.21,0-.33,0,0,0,0,0-.13,0-.19,0-.22,0-.33,0-.17,0-.26l0-.17,0-.17,0-.07c0-.07,0-.14,0-.22s-.05-.24-.08-.36l-.06-.21,0-.1,0-.05-.1-.33-.11-.34-.07-.22C190,288.73,190.79,288.58,191.52,288.44Zm-6.69-2.93c.66-.37,1.29-.72,1.8-1.06.22.57.52,1.23.84,1.91s.63,1.37.92,2.09l.14.35.11.29.08.23.1.29.11.37.08.28c0,.12.06.23.08.34l.06.26c0,.11,0,.21,0,.31s0,.16,0,.24,0,.2,0,.3,0,.14,0,.21,0,.19,0,.29,0,.13,0,.19,0,.2,0,.29,0,.1,0,.14a2.93,2.93,0,0,1-.12.4,2.21,2.21,0,0,1-.11.24v0l0,0-.09.16-.06.08-.09.13-.06.07-.11.13,0,0,0,0-.12.12-.07.06-.13.11-.08.06-.15.11-.08,0-.16.1-.06,0h0l-.17.09,0,0-.05,0-.18.08-.09,0-.19.07-.09,0-.2.06-.1,0-.16,0a14.65,14.65,0,0,0-1.33-.68c-.29-.13-.57-.25-.87-.36s-.79-.28-1.2-.39h0l.16-.12.1-.08.16-.15.08-.08.22-.23,0,0,.16-.2,0-.07,0,0,.11-.16.07-.11.09-.16.06-.11.08-.16.05-.12.06-.17,0-.12,0-.18,0-.11c0-.07,0-.13,0-.2l0-.1c0-.1,0-.2,0-.3s0-.18,0-.27,0-.14,0-.21,0-.1,0-.16,0-.22,0-.34v0c0-.06,0-.11,0-.17l0-.16,0-.16-.06-.17,0,0c0-.1-.08-.21-.12-.32l0-.08-.07-.15c0-.1-.1-.21-.16-.32h0l0-.08-.1-.17-.19-.32-.12-.18-.06-.09-.11-.16-.11-.16,0,0-.2-.27h0l-.12-.17C183.51,286.25,184.18,285.88,184.84,285.51Zm-7.28-.71c.51-.55,1-1.08,1.39-1.56.38.47.87,1,1.38,1.55s1,1.12,1.53,1.71l.23.27,0,0,.19.24.15.19.19.25.22.32.15.23h0l.18.29.14.24.06.11.09.17.11.22.11.28,0,.12,0,.08,0,.07.06.21,0,.15V290c0,.09,0,.18,0,.27s0,.09,0,.14a3.17,3.17,0,0,1,0,.42c0,.09,0,.17,0,.26v.08c0,.06,0,.12,0,.18l0,.09,0,.16,0,.1-.06.15,0,.1-.07.14,0,.09h0l0,.07,0,.07,0,.06,0,0-.09.13-.07.09-.1.12h0l-.08.08-.06.06-.05.06-.09.09-.12.11-.07.06,0,0-.13.1-.11.08h0l-.12.08-.12.07-.11.07a14.66,14.66,0,0,0-1.5-.24c-.31,0-.62-.05-.93-.07l-.63,0-.63,0h0l.11-.17.07-.11.11-.19.05-.09.14-.29,0-.07.09-.23,0-.08v0l.05-.18,0-.13c0-.06,0-.11,0-.17s0-.09,0-.13l0-.17s0-.09,0-.14,0-.11,0-.17,0-.09,0-.13,0-.11,0-.17,0-.08,0-.13,0-.13,0-.19v-.11q0-.15-.06-.3c0-.09-.05-.18-.08-.27l-.06-.15v0c-.05-.13-.12-.26-.19-.39l0,0,0,0c-.07-.11-.14-.23-.22-.34v0l0,0c-.09-.12-.19-.25-.29-.37l-.06-.07-.28-.3-.06-.06h0l-.07-.07-.24-.22-.15-.14h0l0,0,0,0-.3-.24-.15-.12-.09-.07h0l-.15-.11-.36-.26,0,0C176.54,285.91,177.05,285.35,177.56,284.8Zm-7.13,1.56c.32-.68.62-1.34.84-1.91.51.34,1.14.69,1.8,1.06s1.32.75,2,1.15l.32.19.25.17.19.13.27.19.3.22,0,0,.21.16.26.22.06.06.14.12.22.22.17.17.19.22.08.1.06.07.16.24,0,.07.05.08,0,.06.11.21,0,.06,0,.07a2.77,2.77,0,0,1,.14.39c0,.08,0,.17.05.25s0,.06,0,.09,0,.11,0,.17,0,.06,0,.1,0,.11,0,.17,0,.08,0,.11,0,.1,0,.15l0,.11s0,.1,0,.15h0l0,.1,0,.15,0,.12,0,.14,0,.08v0l-.06.15-.05.12-.07.14-.06.11-.08.14,0,0-.05.08-.09.14-.08.11-.1.13-.09.11-.09.1a14.62,14.62,0,0,0-1.5.24c-.31.07-.61.14-.9.22s-.81.24-1.2.39h0l.07-.24,0-.08c0-.1,0-.2.06-.29v0A4.56,4.56,0,0,0,174,293v-.07c0-.08,0-.16,0-.24s0,0,0-.07,0-.16,0-.23v-.09c0-.07,0-.15,0-.22l0-.09-.06-.21,0-.09-.08-.2,0-.08-.1-.21,0-.07-.15-.27-.16-.22,0,0-.07-.08-.13-.15-.09-.09-.13-.13-.1-.09-.14-.12,0,0-.07-.05-.14-.11-.06,0-.05,0-.05,0-.1-.07-.08,0,0,0-.05,0-.1-.06-.08,0,0,0-.08,0-.08,0-.08,0h0l-.18-.08-.07,0,0,0L171,289l-.07,0-.05,0h0l-.15-.06-.14-.05h0l-.17-.06-.07,0-.08,0h0l-.08,0-.1,0-.07,0-.05,0-.16,0-.12,0-.1,0C169.79,287.74,170.12,287,170.43,286.37Zm-6.3,3.7c.09-.75.17-1.46.2-2.07.59.16,1.3.3,2,.45s1.48.3,2.22.48l.37.09.3.09.23.07.31.1.35.12.28.1.31.13,0,0,.2.09.28.14h0l.21.11.21.13,0,0,.18.12.1.08.13.1.15.12.18.19,0,0,.11.11.09.12c.05.07.11.14.16.21l.12.21.07.15,0,.1,0,.08h0l.06.16,0,.1,0,.16,0,.1c0,.05,0,.11,0,.16s0,.07,0,.11,0,.11,0,.16,0,.06,0,.09v0c0,.05,0,.1,0,.16s0,.06,0,.08,0,0,0,0,0,.11,0,.16,0,.08,0,.12,0,.11,0,.16l0,.13,0,.15,0,.12,0,.16,0,.08,0,0-.06.16,0,.05,0,.07-.06.13a14.51,14.51,0,0,0-1.33.68c-.27.16-.54.32-.8.49s-.7.49-1,.75v0c0-.06,0-.12,0-.18h0v0s0-.08,0-.12,0-.12,0-.18,0-.09,0-.14,0-.18,0-.26v0l0-.07v0l-.05-.2,0-.08v0l0-.09,0-.08,0-.11v0l-.05-.12v0l0-.07,0,0-.08-.15v0l-.05-.09,0-.07-.05-.08h0L169,294h0l-.11-.14h0l0-.05,0,0-.14-.14-.07-.07-.23-.2-.22-.16a6.42,6.42,0,0,0-3.71-.89h-.52C163.95,291.57,164,290.8,164.13,290.06Zm-5.3,3.43c.61,0,1.33-.11,2.08-.2s1.5-.18,2.27-.23h0l.37,0h.87a5.47,5.47,0,0,1,3.5.9,2.88,2.88,0,0,1,.32.31h0l0,0,.09.11v0l.06.08h0l.07.1.08.12v0l0,.07h0l0,.05,0,.08,0,.1,0,0,0,.1h0l0,.11,0,.15,0,.11,0,.12v0l0,.11h0l0,.15h0v.12h0v0s0,.09,0,.13,0,.08,0,.13h0s0,.07,0,.1,0,0,0,.06v.05s0,0,0,.08h0s0,.08,0,.11a.5.5,0,0,1,0,.05h0V297h0s0,.1,0,.14h0q-.55.5-1.05,1.05h0c-.21.23-.41.47-.6.71h0c-.27.33-.52.68-.76,1v0l0-.13,0-.07,0-.11-.1-.22,0-.08-.15-.28,0,0-.15-.23v0l0-.05h0l-.12-.16-.08-.1-.12-.13-.1-.1-.12-.11h0l-.1-.08-.12-.1h0l0,0-.07-.05-.12-.08-.14-.09-.1-.06-.06,0-.1-.05h0l-.25-.11-.25-.08h0l-.36-.09h-.08l-.31,0h-.08l-.4,0h-.47l-.25,0-.14,0-.24,0h0l-.12,0h0l-.24,0-.1,0h-.07l-.25.06-.18,0-.25.08-.17.05h0l-.27.09h0l-.09,0-.09,0-.08,0c-.19-.75-.34-1.5-.48-2.23S159,294.08,158.83,293.49Zm-2.48,8.73c-.37-.66-.72-1.28-1.05-1.8.57-.22,1.23-.52,1.92-.84s1.37-.63,2.08-.92l.35-.14.29-.1.23-.08.3-.1.38-.11.13,0,.14,0,.36-.08.2,0h0l.35-.06.2,0,.34,0h.64l.34.05h.1a2.92,2.92,0,0,1,.41.13l.33.15.06,0,.3.19h0l0,0,.16.13h0l0,0,.14.13.06.07.11.13,0,0,0,0,.09.13,0,.07,0,0,.08.13.06.11,0,.08,0,.05,0,.1h0l.06.14,0,.08,0,0,.05.15,0,.13,0,.16,0,.14,0,.14q-.37.64-.68,1.33c-.13.28-.25.57-.36.87s-.28.8-.39,1.21h0l-.06-.07-.07-.09-.08-.1-.15-.16-.06-.07h0l-.19-.18,0,0h0l0,0h0l-.2-.16-.08-.05h0l-.16-.11h0l0,0-.07,0-.15-.09-.1-.05h0l-.14-.07h0l-.11,0h0l-.14-.05h0l-.12,0h0l-.12,0h0l-.1,0h0l-.1,0h-.08l-.1,0h0l-.28,0h-.58l-.23,0-.15,0-.1,0h0l-.22.06-.24.07h0l-.11,0,0,0-.1,0-.37.16-.13.06-.05,0-.2.1h0l-.27.16,0,0-.26.16-.29.19-.31.21-.23.17,0,0h0l-.19.14C157.09,303.55,156.71,302.88,156.35,302.22Zm-.72,7.27c-.55-.51-1.08-1-1.55-1.38.48-.39,1-.88,1.57-1.39s1.11-1,1.7-1.51l.29-.25.24-.19.19-.14.25-.19.18-.12.16-.11.19-.12.26-.16.12-.07.12-.07.3-.16.12-.06.07,0,.31-.13.1,0,.06,0,.29-.09.07,0,.1,0,.26-.05.18,0h.58l.25,0h0l.08,0,.28.07.05,0,.12,0,.13,0,.07,0,0,0,.13.06h0l.11.06.12.07.1.07.12.08.1.08h0l.11.09h0l.1.09h0l.09.09.09.1.1.12.08.1.1.13.08.11.07.11,0,0,.06.1,0,0,.07.11a14.42,14.42,0,0,0-.24,1.49c0,.31-.05.62-.07.93s0,.42,0,.64,0,.42,0,.63l-.06,0-.28-.18-.14-.08,0,0h0l-.28-.14-.2-.08-.25-.09h0l-.2-.06-.31-.07h0l-.15,0h0l-.45,0h0l-.41,0L161,308h-.08l-.13,0h0l-.27.09-.14.05,0,0-.1,0-.26.12h0l-.07,0h0l-.34.22h0l-.07.05-.29.23-.06.05h0L159,309l-.28.27-.07.07h0l-.07.07-.37.4-.06.08-.27.33-.11.14,0,.07-.08.11-.32.44h0C156.74,310.53,156.18,310,155.63,309.5Zm1.56,7.13c-.68-.31-1.33-.61-1.9-.83.33-.51.68-1.14,1-1.79s.75-1.33,1.16-2l.19-.32.17-.26.13-.19.16-.22,0,0,.22-.29.11-.14.08-.1.22-.26.05-.06L159,310l.23-.23,0,0,.13-.12.24-.2.15-.12.28-.19,0,0,.07,0,.38-.19h0a3,3,0,0,1,.4-.14l.36-.07h.06l.36,0h0l.26,0h0l.22,0h0l.2,0h0l.05,0h0l.08,0,.13,0,.05,0,.21.09h0l0,0,.12.06.08,0,0,0h0l.2.12,0,0,0,0,.18.12,0,0,0,0,.09.07.08.06.07.06.11.1a14.74,14.74,0,0,0,.24,1.49c.06.31.14.61.22.9s.24.81.39,1.21a4.75,4.75,0,0,0-1.38-.22h0a3.88,3.88,0,0,0-1.21.2l-.34.12-.08,0a3.51,3.51,0,0,0-.41.22l-.23.16,0,0-.08.06-.16.13-.09.08-.13.13-.09.09-.12.14,0,0,0,.07-.11.14,0,.06,0,.05-.1.15,0,.06,0,.05-.09.16-.06.11-.08.15v0l-.05.11-.05.11,0,.08,0,.09-.11.25,0,0c-.08.2-.15.39-.22.59h0v0l-.05.15,0,.1v0l-.06.18,0,.06v0l0,.15C158.57,317.27,157.87,316.94,157.19,316.63Zm3.73,6.31c-.75-.09-1.46-.17-2.09-.2.16-.59.3-1.3.45-2s.3-1.49.48-2.23l.09-.36c0-.1.06-.2.09-.3l.07-.23.1-.31.12-.35.1-.28.13-.31.11-.26.14-.27,0-.09.07-.14.08-.14.07-.1.09-.14,0,0,.17-.22.12-.15.15-.14.06-.06.11-.11a3.06,3.06,0,0,1,.33-.25,3,3,0,0,1,1.67-.47h.43l.15,0h.07l.13,0,.2,0,.14,0h0l.16,0,.09,0,.05,0h0l.17.07.1,0c.21.46.43.9.68,1.33.16.27.32.54.49.8s.49.7.75,1a4.74,4.74,0,0,0-1.39.21,3.73,3.73,0,0,0-1.78,1.19l-.17.22,0,0L164,319l-.11.17-.06.11-.08.16-.05.12-.07.16,0,.13-.05.16,0,.14,0,.16,0,.14,0,.16,0,.15,0,.16,0,.15,0,.15,0,.16v.14c0,.05,0,.11,0,.17v.07c0,.14,0,.29,0,.43s0,.06,0,.09,0,.13,0,.19v.29s0,.07,0,.1v.24C162.41,323.12,161.65,323,160.92,322.94Zm5.45,4.85c-.74.15-1.45.29-2,.45,0-.61-.12-1.33-.2-2.07s-.18-1.51-.23-2.27c0-.13,0-.25,0-.37s0-.2,0-.31,0-.16,0-.24,0-.22,0-.32,0-.07,0-.1,0-.19,0-.28v-.15s0-.1,0-.14,0-.23,0-.35l0-.2v-.06c0-.11,0-.22,0-.32V321l0-.17c0-.1,0-.2.07-.3l0-.12,0-.08c0-.1.06-.18.1-.27l.06-.17c0-.09.09-.17.13-.26l0-.07,0-.07a2.87,2.87,0,0,1,.24-.34,2.74,2.74,0,0,1,.29-.3,3.51,3.51,0,0,1,2.41-.86H168q.5.55,1.05,1.05c.23.21.47.41.71.6s.67.52,1,.75h0l-.19.07-.12,0-.21.09-.09,0-.28.15,0,0-.22.14-.07.05h0l-.16.12-.09.08-.14.13-.09.09-.13.13-.08.09-.11.14-.07.1-.1.15-.06.1-.1.18,0,.09c0,.09-.09.18-.12.28s-.06.17-.09.26v0l0,.1v0l0,.1,0,.07s0,.08,0,.12,0,.12,0,.18V324s0,.09,0,.14,0,.09,0,.13v.1s0,.05,0,.08,0,.12,0,.18v.33s0,.08,0,.12l0,.18,0,.13,0,.15h0v0l0,.11.05.23,0,.08.08.3v0l.07.25,0,.09.06.19,0,.11.06.17,0,.11,0,.1C167.85,327.49,167.1,327.64,166.37,327.79Zm6.69,2.93c-.66.37-1.28.72-1.8,1.05-.22-.57-.52-1.23-.83-1.91s-.63-1.38-.92-2.09l-.14-.35,0-.11-.07-.18-.08-.22v0l-.09-.28-.11-.35,0-.05-.07-.24c0-.11-.05-.22-.08-.32l0-.1,0-.16c0-.11,0-.21,0-.31s0-.17,0-.25,0-.2,0-.29,0,0,0,0,0-.12,0-.17,0-.19,0-.28h0c0-.06,0-.12,0-.18h0c0-.09,0-.19,0-.28s0-.1,0-.14a2.83,2.83,0,0,1,.12-.4l.11-.24,0-.07.09-.15.06-.09.09-.13.07-.09.09-.11.08-.09.1-.1.09-.08.11-.09.1-.08.11-.08.11-.07.12-.08.12-.07.13-.07.13-.06.13-.06.13-.05.14-.05.14,0,.15,0,.15,0,.13,0a14.32,14.32,0,0,0,1.33.68c.29.13.57.25.87.36s.79.28,1.2.39h0l-.17.13-.09.07-.18.16-.07.06-.22.23,0,0-.18.22,0,.07h0l-.12.17-.06.1-.1.16-.06.11-.08.16,0,.11-.06.17,0,.12c0,.06,0,.12-.05.18l0,.11c0,.07,0,.13,0,.2l0,.1c0,.1,0,.2,0,.3s0,.19,0,.28v0s0,.07,0,.1,0,.14,0,.21v0s0,.06,0,.09,0,.13,0,.19l0,.12,0,.18v0l0,.07,0,.06,0,.12,0,.12,0,.09,0,.09,0,.11,0,.09,0,.09,0,.11.09.18h0l0,.1.06.11,0,.08,0,0,0,0,.05.09.06.11,0,.06v0l0,.07.09.14v0l.12.18.05.08,0,0,.12.17h0v0l.32.43C174.38,330,173.71,330.35,173.06,330.72Zm7.27.72c-.51.55-1,1.07-1.38,1.55-.39-.48-.88-1-1.39-1.56s-1-1.11-1.51-1.7l-.22-.26,0,0-.19-.24-.16-.21-.17-.23-.22-.32-.16-.24,0,0-.16-.27-.13-.23h0l-.09-.18,0-.1,0-.08-.07-.14c0-.09-.07-.18-.11-.27s-.06-.14-.08-.21h0c0-.09-.05-.18-.08-.27l0-.07,0-.11c0-.08,0-.16,0-.24v0s0-.1,0-.15a2.82,2.82,0,0,1,0-.42c0-.09,0-.17,0-.26v-.08l0-.09a.83.83,0,0,1,0-.09v0l0-.07,0-.16,0-.1,0-.1,0,0,0-.1.07-.14.06-.1.08-.13.07-.1.09-.13.08-.09.1-.12.05-.05,0,0,.05-.05.06-.06.07-.07,0,0,.07-.06,0,0,.06-.05,0,0,.13-.1.09-.07h0l.13-.08.06,0,.06,0,.11-.06a14.66,14.66,0,0,0,1.5.24l.93.07.63,0,.63,0,0,0-.07.11-.11.17-.06.1,0,.07-.05.09h0l0,.05-.11.22,0,.06,0,.11,0,.11,0,.09,0,.07,0,.14,0,.09v.06l0,.15h0l0,.13h0l0,.16v.14h0c0,.05,0,.11,0,.17s0,.07,0,.1v0h0c0,.06,0,.12,0,.18v.13c0,.06,0,.13,0,.2s0,.06,0,.09v0c0,.1,0,.2.06.3s.05.18.08.27v0h0l0,.08.08.19.05.11,0,.08,0,.08.07.11h0l.09.15h0l0,0,.06.08.1.14.09.12.1.13.06.07,0,0h0l0,.06.07.08.05.06,0,0,.12.12h0l.09.09h0l.09.08.06.05h0l.08.07.05,0,.12.11,0,0h0l.24.2,0,0,.06,0,0,0,.09.07.1.07.14.1.11.08.13.09.12.08.07,0C181.36,330.32,180.83,330.89,180.32,331.44Zm7.15-1.58c-.32.69-.62,1.34-.84,1.91-.52-.34-1.15-.69-1.81-1.06s-1.31-.74-2-1.15l-.32-.19-.26-.17-.14-.09-.35-.25-.24-.18-.27-.21-.24-.21-.21-.19-.22-.22-.17-.17-.2-.23-.13-.16c-.06-.08-.11-.16-.17-.25l-.1-.15a3,3,0,0,1-.14-.27l-.06-.12a3.1,3.1,0,0,1-.14-.39c0-.09,0-.17-.06-.26v-.08c0-.06,0-.12,0-.18s0-.06,0-.09,0-.11,0-.17v-.09c0-.06,0-.11,0-.17V325c0-.06,0-.11,0-.17l0-.08h0l0-.17,0-.08.06-.18v0l0-.05.07-.18,0-.08,0-.05.06-.12,0,0,0,0,.1-.18,0-.08.12-.17.06-.08.13-.16.07-.08.1-.11a14.42,14.42,0,0,0,1.5-.24c.31-.06.61-.14.9-.22s.81-.24,1.2-.39v0l0,.13v.07l0,.12,0,.12c0,.06,0,.13,0,.19s0,.06,0,.08,0,.15,0,.22,0,0,0,.07v.09s0,.1,0,.14,0,.06,0,.09,0,0,0,.06,0,.1,0,.16,0,.1,0,.15,0,.11,0,.16,0,.09,0,.14l0,.16v.07l0,.06,0,.18,0,.11h0l.06.17v0l0,.08h0l.09.18,0,0v0l.15.26.15.22.11.13,0,0h0a3.88,3.88,0,0,0,.28.29h0l0,0h0l.14.12.2.17.05,0,.2.13.19.13h0l.07,0,.45.25.07,0h0l.5.22h0l.08,0h0l.57.21h0l.05,0,.24.08.41.12h0C188.11,328.48,187.79,329.18,187.47,329.85Zm6.3-3.7c-.09.75-.17,1.46-.21,2.08-.59-.16-1.3-.3-2-.45s-1.48-.3-2.23-.48l-.36-.09-.3-.09-.23-.07-.31-.1-.35-.12-.28-.1-.31-.13-.25-.11-.27-.14-.23-.12-.23-.14L186,326l-.19-.15-.18-.14-.15-.15-.16-.16-.12-.15-.13-.18a2.74,2.74,0,0,1-.2-.38l0-.08,0-.12,0-.13,0-.1,0-.15s0-.06,0-.09h0l0-.1v-.16c0-.06,0-.12,0-.18s0-.06,0-.09h0v-.09s0-.06,0-.09v0s0,0,0-.07,0-.13,0-.19v-.09c0-.07,0-.13,0-.19l0-.09,0-.19,0-.09.06-.2,0-.08.07-.21,0-.08v0l.06-.13q.69-.31,1.33-.68c.27-.16.54-.32.8-.49s.7-.49,1-.76a4.75,4.75,0,0,0,.22,1.4,3.7,3.7,0,0,0,1.18,1.77l.21.15a6.53,6.53,0,0,0,3.73.9H194C194,324.66,193.86,325.44,193.77,326.16Zm5.3-3.43c-.61,0-1.33.11-2.08.2s-1.49.18-2.26.23l-.69,0a6.18,6.18,0,0,1-4.06-.89,3.55,3.55,0,0,1-1.12-3.24q.55-.5,1.05-1.05c.21-.23.41-.47.6-.71s.52-.67.75-1v0l.07.2,0,.11.1.22,0,.08.15.28,0,0,.15.24,0,.07v0l.13.17.08.09.13.14.09.09.13.12.09.08.14.11.1.07.15.1.1.06.18.1.09,0,.28.12.26.08.14,0,.16,0,.27,0,.18,0,.31,0h.18l.45,0h.07a8.91,8.91,0,0,0,1.82-.38h0l.66-.22h0c.18.74.33,1.5.48,2.23S198.91,322.14,199.07,322.73Zm2.48-8.73c.37.66.72,1.28,1.05,1.79-.57.22-1.22.52-1.9.83s-1.38.63-2.09.92l-.35.14-.29.1-.22.08-.31.1-.35.11-.29.08-.33.08-.27.06-.31,0h0l-.21,0-.29,0h-.68l-.29,0-.14,0a2.93,2.93,0,0,1-.4-.12l-.24-.11-.06,0h0l-.15-.08h0l-.06,0-.13-.09-.08-.07-.12-.1-.08-.08-.11-.11-.08-.09-.1-.11-.07-.09-.05-.07,0-.05v0l-.05-.08-.08-.13-.06-.11-.07-.14-.05-.11,0-.09,0-.06,0-.13v0l0-.11,0-.07,0-.06,0-.17,0-.13,0-.14a14.33,14.33,0,0,0,.68-1.33c.13-.28.25-.57.36-.86s.28-.8.39-1.21l0,0,.1.12.11.13.1.11.12.13.06.06c.1.1.21.19.31.28l.08.07.08.06.07,0,.1.07.15.09.11.06.15.08.12.06.15.07.13,0,.15.05.14,0,.15,0,.16,0,.13,0,.3,0h.33l.25,0,.21,0,.29-.05.08,0,.11,0,.32-.1.14-.05h0l.17-.07.17-.07.09,0,.09,0h0l.36-.18.2-.11.36-.22.11-.07.11-.07.18-.12.17-.12.27-.2.17-.13C200.81,312.68,201.19,313.35,201.55,314Zm-1-3-.28.24h0l-.16.13-.08.07-.17.13-.29.22-.26.18-.22.15-.07,0-.25.15,0,0-.23.13-.26.13-.23.11-.27.11-.2.08-.29.08-.17,0-.3,0-.11,0h-.45l-.26,0h0l-.24,0h0l-.23-.07h0l-.21-.08,0,0-.19-.1h0l0,0-.17-.11,0,0h0l-.17-.12-.06,0-.15-.13-.07-.07-.13-.12L194,312l-.12-.14h0l-.07-.08-.11-.14h0l-.07-.09-.1-.15-.07-.11-.07-.11a14.33,14.33,0,0,0,.24-1.49c0-.31.05-.61.07-.92s0-.43,0-.64,0-.42,0-.63l.07,0,.27.18.19.11.28.14.2.08.26.09h0l.19.06.33.07.16,0a3.89,3.89,0,0,0,.49,0h.18a3.58,3.58,0,0,0,.74-.11l.27-.08h.06l.06,0,.19-.08h0l.09,0h0l.16-.08h0l.12-.07.14-.09h0l.11-.07h0l.13-.09h0l.11-.08h0l.13-.1.12-.1.12-.11.11-.1.12-.12h0l.08-.08h0l.13-.13,0,0,0,0,0,0,.17-.19,0,0,.1-.13.11-.14.19-.24.08-.11,0-.07.21-.29.07-.11,0-.06c.59.5,1.15,1,1.7,1.53s1.08,1,1.55,1.38c-.48.38-1,.88-1.57,1.39S201.14,310.52,200.56,311Z" transform="translate(-143.27 -266.01)"/><path class="cls-9" d="M175.91,280.69h0l0-.05,0-.11h0l0-.07,0,0,0-.06,0-.1h0l0-.12,0-.13v0h0a1.23,1.23,0,0,0,0-.12h0c0-.05,0-.1,0-.16h0s0-.08,0-.12v-.16a1.16,1.16,0,0,0,0-.12c0-.05,0-.11,0-.16s0-.08,0-.11h0a1,1,0,0,0,0-.11s0,0,0,0,0-.08,0-.11v-.15h0l0-.08v0s0-.09,0-.14l0-.12h0l0-.09v0L176,278l0,0h0l0,.09a10.13,10.13,0,0,0-.11,1.54c0,.27,0,.52,0,.77s0,.24.06.36h0Z" transform="translate(-143.27 -266.01)"/><path class="cls-9" d="M176.43,277.4l0,.09.09.18v0l0,.07h0l.06.17h0l0,.11h0l0,.09,0,.08,0,.1v0c0,.05,0,.11,0,.17v.17l0,.14V279s0,.05,0,.08,0,.07,0,.1,0,0,0,0,0,.06,0,.09,0,.14,0,.2,0,0,0,0,0,0,0,.07a.33.33,0,0,1,0,0c0,.09,0,.18,0,.27l0,.14,0,.18,0,.12v0h0l0,.17v0c.39-.15.8-.29,1.21-.41s.61-.16.91-.23a14.37,14.37,0,0,1,1.48-.25l.1-.11,0-.06,0,0,.1-.13,0,0,0-.06.09-.14.07-.11.08-.14.06-.12.07-.15,0-.11.06-.15v0l0-.08,0-.15v0l0-.09,0-.16,0-.1c0-.05,0-.11,0-.16s0-.07,0-.1,0-.11,0-.16,0-.07,0-.1,0-.11,0-.17h0v-.08s0-.08,0-.11,0-.11,0-.16,0-.16-.05-.24-.06-.17-.09-.25,0-.1-.05-.15l-.07-.14v0l-.12-.23-.11-.16-.09-.13-.07-.1-.14-.17,0,0-.16-.18-.17-.17h0l-.22-.22-.17-.15,0,0h0a1.64,1.64,0,0,0-.78-.21c-1.16,0-2.15,1-2.68,2.64,0,.09,0,.18-.07.27l.14.18Z" transform="translate(-143.27 -266.01)"/><path class="cls-5" d="M199.53,289.15c-.24-.08-.51-.15-.78-.2l-.12.05-.21.09-.15,0-.07,0a3.32,3.32,0,0,1-.46.1h-.09a4.17,4.17,0,0,1-.48,0h0a4.72,4.72,0,0,1-1.39-.21c.15.4.29.8.41,1.21s.16.6.23.91a14.81,14.81,0,0,1,.25,1.47l.09.08.14.11,0,0,.12.09.14.1.05,0,.09.06.14.08.08,0,.07,0,.12.05.21.09.11,0,.18.06a3,3,0,0,0,1.7.06h0a2.78,2.78,0,0,0,.39-.14l.12-.06.27-.14.15-.1.24-.17.16-.13.23-.2.17-.17.22-.23.18-.2,0,0a1.51,1.51,0,0,0,0-.27C202.13,290.66,201.14,289.68,199.53,289.15Z" transform="translate(-143.27 -266.01)"/><path class="cls-9" d="M194.87,288.73c-.17-.39-.36-.77-.56-1.13v0c-.1-.18-.2-.36-.31-.53a14,14,0,0,0-1.49-2h0q-.42-.47-.88-.91h0l-.48-.43a13.87,13.87,0,0,0-2-1.45h0c-.36-.21-.74-.41-1.12-.59h0l-.6-.26c-.38-.16-.77-.3-1.17-.43s-.8-.23-1.2-.32h0c-.42-.09-.83-.16-1.25-.22h0l-.65-.07a14,14,0,0,0-2.49,0h0q-.64.06-1.26.18h0l-.62.14a14.11,14.11,0,0,0-2.38.8h0l-.25.12c.55,2,1.89,3.19,3.23,3.19,1.74,0,2.61-2.23,2.61-2.23l0,12.28,11.7,0s-2.22-.87-2.23-2.61c0-1.42,1.29-2.83,3.55-3.31l-.06-.17Z" transform="translate(-143.27 -266.01)"/><path class="cls-9" d="M181.79,275.94v0c0,.08.06.17.08.26a2.71,2.71,0,0,1,.07.3v.07c0,.08,0,.15,0,.23s0,.06,0,.09,0,.15,0,.22v.09c0,.07,0,.14,0,.22s0,.06,0,.09,0,.15,0,.22l0,.08c0,.08,0,.15,0,.23l0,.07c0,.08,0,.16-.07.23v.07a4.65,4.65,0,0,1-.26.61v0l-.14.26,0,.07-.13.2h0c.42,0,.84,0,1.26,0l.93.06a14.61,14.61,0,0,1,1.5.23l.11-.07.12-.08.14-.09.11-.08.13-.1.07-.06,0,0,.12-.11.09-.09.11-.11L186,279l.1-.12,0,0,.05-.06.08-.12.07-.1.08-.13,0-.09h0l.07-.14,0-.1a1.25,1.25,0,0,0,.05-.14l0-.11c0-.05,0-.11,0-.16l0-.09,0-.17s0-.06,0-.09,0-.17,0-.26a3.33,3.33,0,0,0,0-.42s0-.05,0-.08v-.06l0-.23v-.06l0-.09,0-.08c0-.09,0-.18-.08-.28l0-.09,0-.12c0-.09-.07-.18-.11-.27l-.11-.22-.14-.28-.1-.16,0-.07-.18-.29-.15-.22,0,0-.21-.3-.2-.26-.15-.18-.19-.24-.24-.28c-.5-.58-1-1.15-1.53-1.69s-1-1.07-1.4-1.55l0,.06h0v6.15l0,.12Z" transform="translate(-143.27 -266.01)"/><path class="cls-9" d="M205.26,292.79c-.55-.5-1.12-1-1.71-1.51l0,.07,0,0-.06.08-.05.08,0,.05-.07.11-.08.11,0,0,0,0,0,0-.15.2,0,0-.2.24-.05.06-.15.18,0,0,0,0-.14.15-.08.08h0l-.14.14-.07.06,0,0-.14.13,0,0-.05,0-.14.12-.1.08-.15.11-.11.07-.15.1L201,294l-.17.09-.11.05-.19.08-.09,0h0l-.25.08a3.25,3.25,0,0,1-.43.08c-.32.15-.55.23-.55.23h7.19l.51-.45C206.35,293.78,205.82,293.3,205.26,292.79Z" transform="translate(-143.27 -266.01)"/><path class="cls-9" d="M192.8,278.5c0,.06,0,.12,0,.17v0c0,.12,0,.23-.05.34s0,.11,0,.16,0,.13-.06.2,0,.18-.08.26a2.86,2.86,0,0,1-.12.28l0,.09-.1.18-.06.1-.1.15-.07.1-.11.14-.08.1-.12.13-.09.09-.13.12-.1.08-.15.12,0,0-.07,0-.21.14-.05,0-.28.15-.1,0-.2.09-.12,0L190,282h0c.35.23.7.47,1,.73s.49.39.72.6a14.46,14.46,0,0,1,1.07,1.05h.87l.2,0H194l.19,0h.09l.18,0,.09,0,.17-.06.09,0,.16-.07.09,0,.15-.08,0,0,0,0,.14-.09.08,0,.13-.1.08-.06.13-.13,0,0,0,0,.17-.2a2.89,2.89,0,0,0,.24-.34l.06-.13c0-.08.09-.17.13-.26l.06-.17c0-.09.07-.17.1-.27s0-.14.05-.21,0-.19.07-.29,0-.16,0-.24,0-.21,0-.32,0-.18,0-.26,0-.23,0-.35,0-.19,0-.29,0-.25,0-.38,0-.21,0-.31,0-.17,0-.25,0-.2,0-.31,0-.25,0-.37c-.06-.76-.15-1.53-.25-2.26s-.19-1.46-.22-2.08c-.59.17-1.3.31-2,.47s-1.48.31-2.23.5l.07.2h0l.11.31,0,0,.06.19.06.19,0,.11.06.21.09.36,0,.19,0,.09h0c0,.12,0,.23.06.35s0,.11,0,.17v.09c0,.12,0,.23,0,.34a.34.34,0,0,1,0,0c0,.06,0,.13,0,.18s0,.11,0,.17S192.8,278.45,192.8,278.5Z" transform="translate(-143.27 -266.01)"/><path class="cls-9" d="M182,268.75a22.11,22.11,0,0,0,1.63,1.84c.53.57,1.08,1.15,1.61,1.77h0c.68-.44,1.37-.84,2-1.23a23,23,0,0,0,2.1-1.29l.38-.28.15.45a22.79,22.79,0,0,0,1,2.24c.33.71.67,1.44,1,2.2h0c.78-.21,1.57-.37,2.34-.53a22.7,22.7,0,0,0,2.39-.58l.45-.15v.47a23.3,23.3,0,0,0,.23,2.45c.1.77.2,1.57.26,2.38h0c.81,0,1.61.13,2.38.22a22.27,22.27,0,0,0,2.46.19h.47l-.14.45a22.06,22.06,0,0,0-.54,2.41c-.14.76-.3,1.55-.49,2.33h0c.75.29,1.48.62,2.19.94a23.24,23.24,0,0,0,2.25.93l.49.15-.28.38a22.08,22.08,0,0,0-1.25,2.12c-.37.68-.76,1.39-1.19,2.08h0c.63.51,1.22,1.05,1.8,1.58a22.63,22.63,0,0,0,1.87,1.59l.39.27-.38.28-.22.18h1.34l0-27.23-27,0v1l0-.05Z" transform="translate(-143.27 -266.01)"/><path class="cls-9" d="M196.88,283.26c0,.06-.08.12-.12.18s-.1.15-.15.22l-.2.23-.07.07-.15.14,0,0-.07.05-.14.12,0,0-.06,0h0l-.15.1-.11.06-.16.09h0l-.05,0-.05,0-.17.08h0l-.09,0h0l-.2.07h0l-.06,0h0l-.27.07h0l-.31.06H194l-.23,0h-.36c.27.33.52.67.76,1s.34.52.5.79a14.9,14.9,0,0,1,.69,1.32l0,0,.11,0,.35.13a4.43,4.43,0,0,0,.73.16h.18a3.6,3.6,0,0,0,.54,0h0a3.22,3.22,0,0,0,.52-.08h0a3,3,0,0,0,.44-.14l.09,0a2.78,2.78,0,0,0,.41-.22,2.93,2.93,0,0,0,.33-.25l.1-.1.21-.21.12-.15.17-.22.12-.18.15-.25.11-.22.14-.28c0-.08.07-.17.11-.25l.13-.31.1-.28c0-.11.08-.23.12-.35l.09-.31.06-.23.08-.3.09-.36c.18-.74.32-1.5.46-2.22s.27-1.46.43-2.05c-.61,0-1.33-.1-2.08-.19s-1.5-.17-2.26-.21c0,.08,0,.15,0,.23v.36c0,.12,0,.23,0,.34v.06s0,.07,0,.1,0,.15,0,.22,0,.25,0,.37l0,.22s0,0,0,.07l0,.17,0,.17c0,.09,0,.18,0,.26s-.05.22-.08.32,0,.13,0,.19l0,0c0,.11-.07.21-.11.31l-.07.19c0,.11-.1.21-.16.31l-.07.13Z" transform="translate(-143.27 -266.01)"/><path class="cls-9" d="M186,273.28l.12.15h0l.07.09.11.16.21.32,0,0,0,.05h0l.1.18.16.28.05.09h0l0,.07c.06.13.13.25.18.37l0,.08c.06.15.12.29.16.44l0,0v0c0,.13.08.26.11.39v.09a3.78,3.78,0,0,1,.06.43.2.2,0,0,1,0,0c0,.05,0,.1,0,.16s0,.19,0,.29,0,.2,0,.3,0,.07,0,.11,0,.13,0,.19l0,.12,0,.17,0,.13-.06.16-.05.13-.07.15-.06.12-.09.15-.07.12-.11.15,0,0,0,.07-.15.19,0,.05-.21.23-.08.07-.16.15-.1.08-.16.13h0l.61.17.59.21c.29.11.58.22.87.34a14.26,14.26,0,0,1,1.36.68l.13,0,.13,0,.14,0h0l.13,0,.15-.06h0l.09,0,.15-.07.11-.05.07,0,.07,0,.1-.05h0l.13-.08.1-.07.12-.09,0,0,.06,0,.06-.05.06-.05h0l.08-.07.11-.11.07-.08.1-.12.07-.08.09-.14.05-.08.09-.16,0-.07a2.52,2.52,0,0,0,.1-.24,3.28,3.28,0,0,0,.12-.4s0-.09,0-.14,0-.17,0-.27v0a.13.13,0,0,0,0,0c0-.05,0-.1,0-.16s0-.14,0-.21,0,0,0-.07V278s0-.08,0-.12,0-.19,0-.3,0-.16,0-.24l0-.18,0-.12-.06-.27c0-.11-.05-.22-.08-.33h0l-.08-.27-.12-.37-.1-.29-.09-.23-.11-.29v0l-.14-.32c-.3-.71-.62-1.42-.94-2.09s-.62-1.32-.85-1.89c-.51.34-1.14.7-1.79,1.07s-1.31.75-2,1.16l0,0Z" transform="translate(-143.27 -266.01)"/><path class="cls-9" d="M202.47,291.62l.22-.3.19-.27.13-.2.17-.26.2-.32c.4-.65.77-1.33,1.13-2s.71-1.29,1-1.81c-.58-.21-1.24-.51-1.93-.82s-1.37-.62-2.08-.9c0,.08,0,.14-.07.22s0,.14-.06.21l0,.14-.13.37-.06.15-.06.16c0,.12-.09.23-.14.34l-.12.27-.08.15-.08.16-.12.24-.18.28-.11.16,0,0c-.06.09-.13.17-.2.25l-.13.16-.24.24-.12.11-.17.13-.22.16a3.22,3.22,0,0,1-.43.24h0c.27.06.53.13.78.2,1.61.53,2.6,1.51,2.6,2.66a1.51,1.51,0,0,1,0,.27l.19-.22Z" transform="translate(-143.27 -266.01)"/><path class="cls-3" d="M181.74,269.51c.39.47.88,1,1.4,1.55s1,1.11,1.53,1.69l.24.28.19.24.15.18.2.26.21.3,0,0,.15.22.18.29,0,.07.1.16.14.28.11.22c0,.09.08.18.11.27l0,.12,0,.09c0,.09.06.18.08.28l0,.08,0,.09v.06l0,.23v.06s0,0,0,.08a3.33,3.33,0,0,1,0,.42c0,.09,0,.17,0,.26s0,.06,0,.09l0,.17,0,.09c0,.05,0,.11,0,.16l0,.11a1.25,1.25,0,0,1-.05.14l0,.1-.07.14h0l0,.09-.08.13-.07.1-.08.12-.05.06,0,0-.1.12-.09.09-.11.11-.09.09-.12.11,0,0-.07.06-.13.1-.11.08-.14.09-.12.08-.11.07a14.61,14.61,0,0,0-1.5-.23l-.93-.06c-.42,0-.84,0-1.26,0h0l.13-.2,0-.07.14-.26v0a4.65,4.65,0,0,0,.26-.61v-.07c0-.08,0-.16.07-.23l0-.07c0-.08,0-.15,0-.23l0-.08c0-.07,0-.15,0-.22s0-.06,0-.09,0-.14,0-.22v-.09c0-.07,0-.14,0-.22s0-.06,0-.09,0-.15,0-.23v-.07a2.71,2.71,0,0,0-.07-.3c0-.09-.05-.17-.08-.26v0l0-.1,0-.12V277a8.11,8.11,0,0,0-.68-1.38,3.87,3.87,0,0,0-1.35-1.41h0l0,0,.17.15.22.22h0l.17.17.16.18,0,0,.14.17.07.1.09.13.11.16.12.23v0l.07.14s0,.1.05.15.06.16.09.25,0,.16.05.24,0,.11,0,.16,0,.08,0,.11V277h0c0,.06,0,.11,0,.17s0,.07,0,.1,0,.11,0,.16,0,.07,0,.1,0,.11,0,.16l0,.1,0,.16,0,.09v0l0,.15,0,.08v0l-.06.15,0,.11-.07.15-.06.12-.08.14-.07.11-.09.14,0,.06,0,0-.1.13,0,0,0,.06-.1.11a14.37,14.37,0,0,0-1.48.25c-.3.07-.61.14-.91.23s-.81.25-1.21.41v0l0-.17h0v0l0-.12,0-.18,0-.14c0-.09,0-.18,0-.27a.33.33,0,0,0,0,0s0,0,0-.07,0,0,0,0,0-.13,0-.2,0-.06,0-.09,0,0,0,0,0-.07,0-.1,0-.05,0-.08v-.13l0-.14v-.17c0-.05,0-.11,0-.17v0l0-.1,0-.08,0-.09h0l0-.11h0l-.06-.17h0l0-.07v0l-.09-.18,0-.09-.15-.26-.14-.18a8.89,8.89,0,0,0-.21,1h0l0,0,.05.13v0l0,.09h0l0,.12s0,.09,0,.14v0l0,.08h0v.15s0,.07,0,.11,0,0,0,0a1,1,0,0,1,0,.11h0s0,.08,0,.11,0,.11,0,.16a1.16,1.16,0,0,1,0,.12v.16s0,.08,0,.12h0c0,.05,0,.1,0,.16h0a1.23,1.23,0,0,1,0,.12h0v0l0,.13,0,.12h0l0,.1,0,.06,0,0,0,.07h0l0,.11,0,.05h0a7,7,0,0,0,.15.86v0l.25-.12h0a14.11,14.11,0,0,1,2.38-.8l.62-.14h0q.62-.12,1.26-.18h0a14,14,0,0,1,2.49,0l.65.07h0c.41.05.83.13,1.25.22h0c.4.09.8.19,1.2.32s.79.27,1.17.43l.6.26h0c.38.18.76.38,1.12.59h0a13.87,13.87,0,0,1,2,1.45l.48.43h0q.46.44.88.91h0a14,14,0,0,1,1.49,2c.11.17.21.35.31.53v0c.2.37.39.75.56,1.13h0l.06.17.16,0a8.43,8.43,0,0,1,1.51-.14,10,10,0,0,1,2.14.22h0a3.22,3.22,0,0,0,.43-.24l.22-.16.17-.13.12-.11.24-.24.13-.16c.07-.08.14-.16.2-.25l0,0,.11-.16.18-.28.13-.24.08-.16.08-.15.12-.27c0-.11.1-.22.14-.34l.06-.16.06-.15.13-.37,0-.14c0-.07,0-.14.06-.21s0-.14.07-.22c.71.28,1.41.59,2.08.9s1.35.61,1.93.82c-.33.52-.68,1.15-1,1.81s-.73,1.33-1.13,2l-.2.32-.17.26-.13.2-.19.27-.22.3-.18.24-.19.22a2.94,2.94,0,0,1-1.39,1.74,7.93,7.93,0,0,1-1,.57,3.25,3.25,0,0,0,.43-.08l.25-.08h0l.09,0,.19-.08.11-.05L201,294l.11-.07.15-.1.11-.07.15-.11.1-.08.14-.12.05,0,0,0,.14-.13,0,0,.07-.06.14-.14h0l.08-.08.14-.15,0,0,0,0,.15-.18.05-.06.2-.24,0,0,.15-.2,0,0,0,0,0,0,.08-.11.07-.11,0-.05.05-.08.06-.08,0,0,0-.07c.59.49,1.16,1,1.71,1.51s1.09,1,1.57,1.37l-.51.45h1.05l.22-.18.38-.28-.39-.27a22.63,22.63,0,0,1-1.87-1.59c-.58-.53-1.17-1.06-1.8-1.58h0c.43-.69.81-1.39,1.19-2.08a22.08,22.08,0,0,1,1.25-2.12l.28-.38-.49-.15a23.24,23.24,0,0,1-2.25-.93c-.71-.32-1.44-.65-2.19-.94h0c.19-.79.34-1.57.49-2.33a22.06,22.06,0,0,1,.54-2.41l.14-.45h-.47a22.27,22.27,0,0,1-2.46-.19c-.77-.09-1.57-.17-2.38-.22h0c-.06-.81-.16-1.61-.26-2.38a23.3,23.3,0,0,1-.23-2.45v-.47l-.45.15a22.7,22.7,0,0,1-2.39.58c-.77.16-1.55.32-2.34.53h0c-.31-.75-.65-1.49-1-2.2a22.79,22.79,0,0,1-1-2.24l-.15-.45-.38.28a23,23,0,0,1-2.1,1.29c-.68.39-1.37.79-2,1.23h0c-.53-.62-1.07-1.21-1.61-1.77a22.11,22.11,0,0,1-1.63-1.84l-.28-.38,0,.05v1.15Zm15.37,13.3.07-.19c0-.1.08-.2.11-.31l0,0c0-.06,0-.12,0-.19s.06-.21.08-.32,0-.17,0-.26l0-.17,0-.17s0,0,0-.07l0-.22c0-.12,0-.24,0-.37s0-.15,0-.22,0-.07,0-.1v-.06c0-.11,0-.23,0-.34v-.36c0-.08,0-.15,0-.23.76,0,1.52.13,2.26.21s1.47.16,2.08.19c-.15.6-.29,1.31-.43,2.05s-.28,1.48-.46,2.22l-.09.36-.08.3-.06.23-.09.31c0,.12-.08.24-.12.35l-.1.28-.13.31c0,.08-.07.17-.11.25l-.14.28-.11.22-.15.25-.12.18-.17.22-.12.15-.21.21-.1.1a2.93,2.93,0,0,1-.33.25,2.78,2.78,0,0,1-.41.22l-.09,0a3,3,0,0,1-.44.14h0a3.22,3.22,0,0,1-.52.08h0a3.6,3.6,0,0,1-.54,0h-.18a4.43,4.43,0,0,1-.73-.16l-.35-.13-.11,0,0,0a14.9,14.9,0,0,0-.69-1.32c-.16-.27-.33-.53-.5-.79s-.49-.69-.76-1h.36l.23,0h.09l.31-.06h0l.27-.07h0l.06,0h0l.2-.07h0l.09,0h0l.17-.08.05,0,.05,0h0l.16-.09.11-.06.15-.1h0l.06,0,0,0,.14-.12.07-.05,0,0,.15-.14.07-.07.2-.23c.05-.07.1-.14.15-.22s.09-.12.12-.18h0l.07-.13C197,283,197.06,282.92,197.11,282.81ZM192.8,278a.34.34,0,0,0,0,0c0-.11,0-.22,0-.34v-.09c0-.05,0-.11,0-.17s0-.23-.06-.35h0l0-.09,0-.19-.09-.36-.06-.21,0-.11-.06-.19-.06-.19,0,0-.11-.31h0l-.07-.2c.74-.19,1.5-.35,2.23-.5s1.44-.3,2-.47c0,.61.13,1.33.22,2.08s.19,1.5.25,2.26c0,.13,0,.25,0,.38s0,.21,0,.31,0,.17,0,.25,0,.21,0,.31,0,.26,0,.38,0,.2,0,.29,0,.23,0,.35,0,.18,0,.26,0,.21,0,.32,0,.16,0,.24,0,.2-.07.29,0,.14-.05.21-.06.18-.1.27l-.06.17c0,.09-.09.18-.13.26l-.06.13a2.89,2.89,0,0,1-.24.34l-.17.2,0,0,0,0-.13.13-.08.06-.12.1-.08,0-.14.09,0,0,0,0L195,284l-.09,0-.16.07-.09,0-.17.06-.09,0-.18,0h-.09l-.19,0h-.09l-.2,0h-.87a14.46,14.46,0,0,0-1.07-1.05q-.35-.31-.72-.6c-.33-.26-.67-.5-1-.73h0l.19-.07.12,0,.2-.09.1,0,.28-.15.05,0,.21-.14.07,0,0,0,.15-.12.1-.08.13-.12.09-.09.12-.13.08-.1.11-.14.07-.1.1-.15.06-.1.1-.18,0-.09a2.86,2.86,0,0,0,.12-.28c0-.08.05-.17.08-.26s0-.13.06-.2,0-.1,0-.16,0-.22.05-.34v0c0-.06,0-.12,0-.17s0-.11,0-.17,0-.11,0-.17S192.81,278,192.8,278Zm-5.16-6.25c.66-.37,1.29-.73,1.79-1.07.22.57.53,1.21.85,1.89s.64,1.38.94,2.09l.14.32v0l.11.29.09.23.1.29.12.37.08.27h0c0,.11.06.22.08.33l.06.27,0,.13,0,.18c0,.08,0,.16,0,.24s0,.2,0,.3,0,.08,0,.12v.09s0,0,0,.07,0,.14,0,.21,0,.1,0,.16a.13.13,0,0,1,0,0v0c0,.09,0,.18,0,.27s0,.09,0,.14a3.28,3.28,0,0,1-.12.4,2.52,2.52,0,0,1-.1.24l0,.07-.09.16-.05.08-.09.14-.07.08-.1.12-.07.08-.11.11-.08.07h0l-.06.05-.06.05-.06,0,0,0-.12.09-.1.07-.13.08h0l-.1.05-.07,0-.07,0-.11.05-.15.07-.09,0h0l-.15.06-.13,0h0l-.14,0-.13,0-.13,0a14.26,14.26,0,0,0-1.36-.68c-.28-.12-.57-.24-.87-.34l-.59-.21-.61-.17h0L186,280l.1-.08.16-.15.08-.07.21-.23,0-.05.15-.19,0-.07,0,0,.11-.15.07-.12.09-.15.06-.12.07-.15.05-.13.06-.16,0-.13,0-.17,0-.12c0-.06,0-.12,0-.19s0-.07,0-.11,0-.2,0-.3,0-.19,0-.29,0-.1,0-.16a.2.2,0,0,0,0,0,3.78,3.78,0,0,0-.06-.43v-.09c0-.13-.06-.26-.11-.39v0l0,0c0-.14-.1-.29-.16-.44l0-.08c-.05-.12-.12-.25-.18-.37l0-.07h0l-.05-.09-.16-.28-.1-.18h0l0-.05,0,0-.21-.32-.11-.16-.07-.09h0l-.12-.15-.27-.36,0,0C186.33,272.49,187,272.11,187.64,271.74Z" transform="translate(-143.27 -266.01)"/></svg>