<?xml version="1.0" encoding="utf-8"?>
<!-- Generator: Adobe Illustrator 21.0.2, SVG Export Plug-In . SVG Version: 6.00 Build 0)  -->
<svg version="1.1" id="Layer_1" xmlns="http://www.w3.org/2000/svg" xmlns:xlink="http://www.w3.org/1999/xlink" x="0px" y="0px"
	 viewBox="0 0 100 68" style="enable-background:new 0 0 100 68;" xml:space="preserve">
<path d="M99.5,15.8C97.2,9.7,87.8,7.3,73,9c-0.1,0-0.2,0.1-0.3,0.1C66.7,3.5,58.7,0,50,0C33.2,0,19.3,12.8,17,29.3
	C4.2,37.6-1.9,46,0.5,52.2c2,5.2,8.8,7.3,17.8,7.3c2.8,0,5.9-0.2,9-0.6C33.3,64.5,41.3,68,50,68c16.8,0,30.7-12.8,33-29.3
	c8-5.2,13.8-10.7,16-15.6C100.1,20.5,100.3,18,99.5,15.8z M50,4.2c16.1,0,29.2,13.3,29.2,29.8c0,0.7-0.1,1.5-0.1,2.2
	c-6.7,4.1-14.9,8.1-23.9,11.4c-9.7,3.6-18.7,5.8-26.3,6.9c-5-5.3-8-12.5-8-20.4C20.8,17.6,33.9,4.2,50,4.2z M4.4,50.7
	C3,47,7.8,40.9,16.7,34.6c0.1,7.7,2.8,14.8,7.2,20.4C13,55.9,5.8,54.3,4.4,50.7z M50,63.8c-6.4,0-12.3-2.1-17.1-5.7
	c7.7-1.4,15.9-3.6,23.7-6.5c7.9-2.9,15.2-6.3,21.5-9.9C74.8,54.3,63.5,63.8,50,63.8z M95.2,21.3c-1.6,3.7-5.9,7.9-11.9,12.1
	c-0.1-7.7-2.8-14.8-7.1-20.4c10.6-0.9,18.1,0.8,19.4,4.4C96,18.4,95.9,19.8,95.2,21.3z"/>
</svg>
