<?xml version="1.0" encoding="utf-8"?>
<!-- Generator: Adobe Illustrator 21.0.2, SVG Export Plug-In . SVG Version: 6.00 Build 0)  -->
<svg version="1.1" id="Layer_1" xmlns="http://www.w3.org/2000/svg" xmlns:xlink="http://www.w3.org/1999/xlink" x="0px" y="0px"
	 viewBox="0 0 100 100" style="enable-background:new 0 0 100 100;" xml:space="preserve">
<g>
	<path d="M99.4,86L89,75.6c-0.8-0.8-2.1-0.8-2.9,0c-0.8,0.8-0.8,2.1,0,2.9l6.9,6.9H14.6V7.1l6.9,6.9c0.4,0.4,0.9,0.6,1.5,0.6
		c0.5,0,1.1-0.2,1.5-0.6c0.8-0.8,0.8-2.1,0-2.9L14,0.6c-0.8-0.8-2.1-0.8-2.9,0L0.6,11c-0.8,0.8-0.8,2.1,0,2.9c0.8,0.8,2.1,0.8,2.9,0
		l6.9-6.9v80.4c0,1.2,0.9,2.1,2.1,2.1h80.4L86,96.4c-0.8,0.8-0.8,2.1,0,2.9c0.4,0.4,0.9,0.6,1.5,0.6s1.1-0.2,1.5-0.6L99.4,89
		C100.2,88.2,100.2,86.8,99.4,86z"/>
	<path d="M29.2,72.9c28.7,0,52.1-23.4,52.1-52.1c0-1.2-0.9-2.1-2.1-2.1c-1.2,0-2.1,0.9-2.1,2.1c0,26.4-21.5,47.9-47.9,47.9
		c-1.2,0-2.1,0.9-2.1,2.1C27.1,72,28,72.9,29.2,72.9z"/>
</g>
</svg>
