<?xml version="1.0" encoding="utf-8"?>
<!-- Generator: Adobe Illustrator 21.0.2, SVG Export Plug-In . SVG Version: 6.00 Build 0)  -->
<svg version="1.1" id="Layer_1" xmlns="http://www.w3.org/2000/svg" xmlns:xlink="http://www.w3.org/1999/xlink" x="0px" y="0px"
	 viewBox="0 0 100 100" style="enable-background:new 0 0 100 100;" xml:space="preserve">
<g>
	<path d="M97.9,52.1c1.2,0,2.1-0.9,2.1-2.1c0-1.2-0.9-2.1-2.1-2.1H87.5V27.1h10.4c1.2,0,2.1-0.9,2.1-2.1c0-1.2-0.9-2.1-2.1-2.1H87.5
		v-5.1c0-2.9-2.4-5.3-5.3-5.3h-5.1V2.1C77.1,0.9,76.2,0,75,0s-2.1,0.9-2.1,2.1v10.4H52.1V2.1C52.1,0.9,51.2,0,50,0s-2.1,0.9-2.1,2.1
		v10.4H27.1V2.1C27.1,0.9,26.2,0,25,0s-2.1,0.9-2.1,2.1v10.4h-5.1c-2.9,0-5.3,2.4-5.3,5.3v5.1H2.1C0.9,22.9,0,23.8,0,25
		c0,1.2,0.9,2.1,2.1,2.1h10.4v20.8H2.1C0.9,47.9,0,48.8,0,50c0,1.2,0.9,2.1,2.1,2.1h10.4v20.8H2.1C0.9,72.9,0,73.8,0,75
		c0,1.2,0.9,2.1,2.1,2.1h10.4v5.1c0,2.9,2.4,5.3,5.3,5.3h5.1v10.4c0,1.2,0.9,2.1,2.1,2.1s2.1-0.9,2.1-2.1V87.5h20.8v10.4
		c0,1.2,0.9,2.1,2.1,2.1s2.1-0.9,2.1-2.1V87.5h20.8v10.4c0,1.2,0.9,2.1,2.1,2.1s2.1-0.9,2.1-2.1V87.5h5.1c2.9,0,5.3-2.4,5.3-5.3
		v-5.1h10.4c1.2,0,2.1-0.9,2.1-2.1c0-1.2-0.9-2.1-2.1-2.1H87.5V52.1H97.9z M83.3,82.2c0,0.6-0.5,1.1-1.1,1.1H17.8
		c-0.6,0-1.1-0.5-1.1-1.1V17.8c0-0.6,0.5-1.1,1.1-1.1h64.4c0.6,0,1.1,0.5,1.1,1.1V82.2z"/>
	<path d="M62.5,35.4h-25c-1.2,0-2.1,0.9-2.1,2.1v25c0,1.2,0.9,2.1,2.1,2.1h25c1.2,0,2.1-0.9,2.1-2.1v-25
		C64.6,36.3,63.7,35.4,62.5,35.4z M60.4,60.4H39.6V39.6h20.8V60.4z"/>
</g>
</svg>
