<?xml version="1.0" encoding="utf-8"?>
<!-- Generator: Adobe Illustrator 21.0.2, SVG Export Plug-In . SVG Version: 6.00 Build 0)  -->
<svg version="1.1" id="Layer_1" xmlns="http://www.w3.org/2000/svg" xmlns:xlink="http://www.w3.org/1999/xlink" x="0px" y="0px"
	 viewBox="0 0 100 100" style="enable-background:new 0 0 100 100;" xml:space="preserve">
<g>
	<path d="M50,100C22.4,100,0,77.6,0,50C0,22.4,22.4,0,50,0s50,22.4,50,50C100,77.5,77.7,100,50,100z M69.8,53.7
		c-4.9,5.4-12,8.8-19.8,8.8s-14.9-3.4-19.8-8.8C20.7,55,16.5,64.3,15,74.7c7.8,10.9,20.5,18.1,35,18.1s27.2-7.2,35-18.1
		C83.5,64.3,79.3,55,69.8,53.7z M50,14.3c-11.8,0-21.4,9.6-21.4,21.4S38.2,57.1,50,57.1s21.4-9.6,21.4-21.4S61.8,14.3,50,14.3z"/>
</g>
</svg>
